<svg height="800" width="800" xmlns="http://www.w3.org/2000/svg" viewBox="0 0 480 480" xml:space="preserve"><path style="fill:#ffb61c" d="M240 540.36c-132.531 0-240 107.469-240 240s107.469 240 240 240 240-107.469 240-240-107.469-240-240-240z" transform="translate(0 -540.36)"/><path style="fill:#fcd116" d="M240 543.36c130.909 0 237 106.091 237 237s-106.091 237-237 237S3 911.269 3 780.36s106.091-237 237-237z" transform="translate(0 -540.36)"/><path style="fill:#febc1a" d="M268.209 578.152c-.555 10.599-9.597 18.741-20.196 18.186-10.599-.555-18.741-9.597-18.186-20.196.555-10.599 9.597-18.741 20.196-18.186 10.598.555 18.74 9.597 18.186 20.196zM246.932 984.579c-.555 10.599-9.597 18.741-20.196 18.186-10.599-.555-18.741-9.597-18.186-20.196.555-10.599 9.597-18.741 20.196-18.186 10.599.555 18.741 9.597 18.186 20.196zM442.099 796.995c-10.613.135-19.325-8.359-19.46-18.972-.135-10.613 8.359-19.325 18.972-19.46 10.613-.135 19.325 8.359 19.46 18.972.134 10.612-8.36 19.325-18.972 19.46zM35.148 802.159c-10.613.135-19.325-8.359-19.46-18.972-.135-10.613 8.359-19.325 18.972-19.46s19.325 8.359 19.46 18.972c.134 10.613-8.36 19.325-18.972 19.46zM425.402 862.827c-10.071-3.35-15.519-14.23-12.169-24.301 3.35-10.071 14.23-15.519 24.301-12.169 10.071 3.35 15.519 14.23 12.169 24.301-3.35 10.071-14.23 15.519-24.301 12.169zM39.225 734.364c-10.071-3.35-15.519-14.23-12.169-24.301 3.35-10.071 14.23-15.519 24.301-12.169 10.071 3.35 15.519 14.23 12.169 24.301-3.351 10.071-14.23 15.519-24.301 12.169zM415.522 672.726c-8.225 6.708-20.33 5.478-27.038-2.747-6.708-8.225-5.478-20.33 2.747-27.038 8.225-6.708 20.33-5.478 27.038 2.747s5.478 20.33-2.747 27.038zM88.57 917.781c-8.225 6.708-20.33 5.478-27.038-2.747s-5.478-20.33 2.747-27.038c8.225-6.708 20.33-5.478 27.038 2.747s5.478 20.33-2.747 27.038zM436.106 728.57c-9.969 3.643-21.003-1.486-24.646-11.454-3.643-9.969 1.486-21.003 11.454-24.646 9.969-3.643 21.003 1.486 24.646 11.454 3.643 9.969-1.485 21.003-11.454 24.646zM53.844 868.252c-9.969 3.643-21.003-1.486-24.646-11.454-3.643-9.969 1.486-21.003 11.454-24.646 9.969-3.643 21.003 1.486 24.646 11.454 3.643 9.969-1.486 21.003-11.454 24.646zM270.765 982.176c-2.659-10.275 3.514-20.76 13.789-23.42 10.275-2.659 20.76 3.514 23.42 13.789 2.659 10.275-3.514 20.76-13.789 23.42-10.275 2.659-20.76-3.514-23.42-13.789zM168.785 588.176c-2.659-10.275 3.514-20.76 13.789-23.42 10.275-2.659 20.76 3.514 23.42 13.789s-3.514 20.76-13.789 23.42-20.76-3.514-23.42-13.789zM100.071 930.857c6.415-8.455 18.47-10.109 26.925-3.694 8.455 6.415 10.109 18.47 3.694 26.925-6.415 8.455-18.47 10.109-26.925 3.694-8.455-6.415-10.109-18.47-3.694-26.925zM346.069 606.633c6.415-8.455 18.47-10.109 26.925-3.694 8.455 6.415 10.109 18.47 3.694 26.925s-18.47 10.109-26.925 3.694c-8.456-6.415-10.11-18.469-3.694-26.925z" transform="translate(0 -540.36)"/><path style="fill:#f39c12" d="M240 611.382c-93.321 0-168.98 75.658-168.98 168.979s75.66 168.98 168.98 168.98 168.98-75.659 168.98-168.98S333.321 611.382 240 611.382z" transform="translate(0 -540.36)"/><path style="fill:#ffb61c" d="M240 612.096c92.934 0 168.266 75.33 168.266 168.264S332.934 948.626 240 948.626 71.736 873.294 71.736 780.36 147.066 612.096 240 612.096z" transform="translate(0 -540.36)"/><path style="fill:#f39c12" d="M240 605.505c-96.537 0-174.857 78.318-174.857 174.855S143.464 955.217 240 955.217c96.537 0 174.857-78.32 174.857-174.857S336.537 605.505 240 605.505zm0 5.714c93.449 0 169.143 75.692 169.143 169.141S333.449 949.503 240 949.503c-93.448 0-169.143-75.694-169.143-169.143.001-93.449 75.695-169.141 169.143-169.141z" transform="translate(0 -540.36)"/><path style="fill:#e6a419" d="M226.577 677.438v29.497c-20.967 8.621-33.389 31.201-29.559 54.014 4.042 24.073 25.359 41.912 49.6 40.927 6.008.75 11.033 5.391 12.207 12.382 1.353 8.057-3.347 15.326-10.351 17.313-7.004 1.987-14.053-1.496-16.871-9.062l-31.989 11.918c4.852 13.023 14.88 22.943 26.964 28.011v29.839h34.137v-28.806c22.302-7.899 35.739-31.258 31.776-54.864-4.041-24.07-25.353-41.906-49.589-40.927-6.014-.745-11.043-5.388-12.218-12.385-1.353-8.057 3.347-15.326 10.351-17.313 7.004-1.987 14.052 1.499 16.871 9.065l31.99-11.918c-5.145-13.811-16.114-24.133-29.181-28.878v-28.814l-34.138.001z" transform="translate(0 -540.36)"/><path style="fill:#ffb61c" d="M220.844 671.96v29.886c-21.011 8.99-33.413 31.743-29.547 54.77 4.122 24.55 25.864 42.75 50.607 41.744l-.162-.008c5.581.697 10.251 4.961 11.361 11.57 1.275 7.596-3.14 14.362-9.65 16.209-6.549 1.857-13.019-1.304-15.686-8.461l-.342-.92-33.828 12.604.344.918c4.867 13.064 14.85 23.042 26.902 28.287v30.201h36.098v-29.162c22.347-8.293 35.762-31.826 31.762-55.65-4.112-24.493-25.764-42.65-50.436-41.736-5.587-.692-10.26-4.959-11.371-11.574-1.275-7.596 3.142-14.36 9.652-16.207 6.548-1.858 13.017 1.306 15.684 8.463l.344.92 33.826-12.604-.342-.918c-5.162-13.856-16.08-24.239-29.119-29.184V671.96h-36.097z" transform="translate(0 -540.36)"/><path style="fill:#f39c12" d="M222.805 673.923h32.176v28.52l.645.234c12.51 4.542 23.023 14.329 28.203 27.398l-30.18 11.244c-3.202-7.335-10.472-10.807-17.635-8.775-7.498 2.127-12.481 9.9-11.051 18.418 1.239 7.377 6.623 12.398 13.064 13.195l.08.01.08-.002c23.733-.959 44.621 16.515 48.582 40.107 3.886 23.145-9.292 46.041-31.137 53.777l-.652.232V886.8h-32.176v-29.51l-.602-.252c-11.554-4.846-21.156-14.244-26.033-26.551l30.182-11.244c3.201 7.336 10.474 10.807 17.637 8.775 7.498-2.127 12.481-9.902 11.051-18.42-1.238-7.372-6.618-12.388-13.053-13.191l-.08-.012-.082.004c-23.737.965-44.63-16.514-48.592-40.109-3.755-22.367 8.428-44.5 28.965-52.943l.607-.25.001-29.174z" transform="translate(0 -540.36)"/><path style="fill:#d89e22" d="M149.287 781.153c0 8.028-6.508 14.536-14.536 14.536s-14.536-6.508-14.536-14.536 6.508-14.536 14.536-14.536 14.536 6.508 14.536 14.536z" transform="translate(0 -540.36)"/><path style="fill:#f39c12" d="M133.52 765.033c-8.293 0-15.025 6.732-15.025 15.025s6.732 15.027 15.025 15.027 15.025-6.734 15.025-15.027-6.732-15.025-15.025-15.025z" transform="translate(0 -540.36)"/><path style="fill:#d89e22" d="M361.507 781.153c0 8.028-6.508 14.536-14.536 14.536s-14.536-6.508-14.536-14.536 6.508-14.536 14.536-14.536 14.536 6.508 14.536 14.536z" transform="translate(0 -540.36)"/><path style="fill:#f39c12" d="M345.738 765.033c-8.293 0-15.025 6.732-15.025 15.025s6.732 15.027 15.025 15.027 15.027-6.734 15.027-15.027-6.734-15.025-15.027-15.025z" transform="translate(0 -540.36)"/><path style="fill:#febc1a" d="M386.654 921.048c-8.352-6.549-9.813-18.629-3.264-26.981 6.549-8.352 18.629-9.813 26.981-3.264s9.813 18.629 3.264 26.981-18.63 9.814-26.981 3.264c-.001 0-.001 0 0 0zM66.389 669.918c-8.352-6.549-9.814-18.629-3.265-26.981 6.549-8.352 18.629-9.813 26.981-3.264s9.814 18.629 3.265 26.981c-6.55 8.352-18.629 9.813-26.981 3.264zM332.37 961.865c-5.745-8.924-3.168-20.816 5.756-26.561 8.924-5.745 20.816-3.168 26.561 5.756 5.745 8.924 3.168 20.816-5.756 26.561-8.924 5.746-20.816 3.168-26.561-5.756zM112.071 619.661c-5.745-8.924-3.168-20.816 5.756-26.561s20.816-3.168 26.561 5.756c5.745 8.924 3.168 20.816-5.756 26.561s-20.816 3.168-26.561-5.756zM325.87 595.635c-3.621 9.977-14.644 15.129-24.621 11.508-9.977-3.621-15.129-14.644-11.508-24.621 3.621-9.977 14.644-15.129 24.621-11.508 9.977 3.621 15.129 14.644 11.508 24.621zM187.017 978.199c-3.621 9.977-14.644 15.129-24.621 11.508-9.977-3.621-15.129-14.644-11.508-24.621 3.621-9.977 14.644-15.129 24.621-11.508 9.977 3.622 15.129 14.645 11.508 24.621z" transform="translate(0 -540.36)"/></svg>