<svg xmlns="http://www.w3.org/2000/svg" width="512" height="512"><path style="fill:#fff;stroke:none" d="M0 0v241h1c.003-28.65 8.942-57.902 20.15-84C92.357-8.802 330.949-45.998 449.283 90c16.655 19.141 31.125 40.602 41.139 64 11.336 26.487 20.576 55.913 20.579 85h1V0H0z"/><path style="fill:#bf9101;stroke:none" d="M237 7v1c107.31 0 207.008 60.523 244.947 164 39.189 106.888-2.498 228.816-96.947 291.667-23.061 15.345-52.165 30.582-80 34.333 5.183 2.023 12.733-.844 18-2.13 16.114-3.933 32-9.566 47-16.651 66.048-31.197 114.096-90.14 133.576-160.219C535.247 205.06 476.509 78.666 369 29.309 325.545 9.359 283.749 6.995 237 7z"/><path style="fill:#d9a509;stroke:none" d="M460 385h-1c-16.181 29.064-41.624 55.018-69 73.656-44.112 30.032-97.276 47.657-151 45.305C89.696 497.423-23.034 354.143 6.2 208c6.189-30.938 18.662-60.744 36.133-87C63.845 88.674 92.195 61.542 126 42.28 165.227 19.93 208.964 8.929 254 9c37.548.06 77.119 11.523 110 29.309C378.483 46.142 391.112 56.35 405 65c-5.093-10.029-21.464-17.675-31-23.15-32.51-18.663-68.579-30.196-106-32.939C130.346-1.179 6.138 105.722.04 245-6.299 389.723 120.385 518.358 267 504.17c59.648-5.772 115.152-29.269 158-72.17 11.874-11.889 31.034-30.123 35-47z"/><path style="fill:#e9c34f;stroke:none" d="M234 9.424C175.495 17.106 123.146 34.966 79 76.09 57.431 96.18 39.888 120.666 26.753 147-42.655 286.156 38.306 458.951 189 496.625c30.149 7.537 61.254 9.136 92 5.093C398.28 486.297 490.784 385.201 495.961 267 501.185 147.7 415.141 37.632 298 14.2c-20.414-4.084-43.188-7.508-64-4.776z"/><path style="fill:#d7a301;stroke:none" d="M233 43.424c-46.039 6.045-88.449 19.568-124.576 50.29C89.029 110.208 73.474 130.887 61.14 153c-48.053 86.146-28.228 202.07 47.284 266.286 45.179 38.42 106.866 56.473 165.576 49.429 32.248-3.87 63.654-14.803 91-32.407 103.021-66.322 129.485-216.742 51.951-313.112C389.682 89.303 352.445 64.722 311 51.976c-24.218-7.449-52.678-11.876-78-8.552z"/><path style="fill:#e9c34f;stroke:none" d="M240 51.424c-41.487 5.45-79.637 16.974-113.41 42.917C106.479 109.79 89.786 129.54 76.425 151c-53.393 85.765-31.957 201.528 45.999 265.28 45.232 36.99 105.091 52.585 162.576 44.435 28.508-4.042 55.537-14.98 80-29.919 19.527-11.924 36.676-27.871 50.789-45.796 70.25-89.223 53.96-226.309-38.789-293.575-19.621-14.23-41.673-25.437-65-32.134-22.519-6.465-48.554-10.947-72-7.867z"/><path style="fill:#d9a505;stroke:none" d="M460 128c8.459 23.238 21.704 43.583 28.116 68 12.344 47.008 9.435 96.221-6.46 142-5.701 16.418-15.795 30.899-21.656 47 12.028-10.304 18.751-33.307 23.667-48 16.788-50.183 18.124-105.497 1.663-156-5.258-16.134-12.101-41.668-25.33-53z"/><path style="fill:#bf8f01;stroke:none" d="M249 153c3.303 14.062 15.491 28.995 22.89 41.425 8.273 13.897 14.715 30.159 25.11 42.575 1.397-7.23-5.227-15.002-8.799-21-8.847-14.854-16.989-30.125-25.804-45-3.372-5.689-6.749-15.921-13.397-18z"/><path style="fill:#d7a301;stroke:none" d="m248 154-31.86 57L203 236l-2-2c-6.117 3.358-16.792-2.215-23-4.026-17.586-5.131-39.788-14.445-58-14.974v3c7.757 4.402 11.353 19.211 15.247 27l32 64c3.319 6.638 7.247 20.683 13.39 24.972C184.371 336.579 192.631 335 197 335c14.057 0 27.965-1.005 42-1 19.27.007 38.655 1 58 1 6.225 0 16.928 2.069 22.61-.603 7.073-3.328 12.703-22.517 16.143-29.397 9.969-19.939 19.281-40.191 29.505-60 4.93-9.552 12.825-20.378 14.742-31-3.541.464-9.466 1.071-10 5-9.532-1.69-19.917 3.197-29 5.975-14.846 4.541-30.039 7.837-45 12.025-3.131-10.644-11.433-20.542-16.894-30.156C269.605 190.117 261.294 167.892 248 154z"/><path style="fill:#bf8f01;stroke:none" d="M117 211c3.743 5.94 16.06 7.193 22.576 9.08C159.51 225.852 180.444 232.978 201 236c-3.869-5.105-15.924-6.411-22-8.14-19.462-5.54-41.775-15.936-62-16.86z"/><path style="fill:#bf9101;stroke:none" d="M381 213c-14.062 29.538-29.116 58.726-43.753 88-4.185 8.37-9.698 27.908-17.637 32.972C311.714 339.009 290.334 335 281 335H179v1c35.049 0 69.997 1 105 1h27c3.285 0 8.515.96 11.363-1.028 8.026-5.603 13.513-25.229 17.884-33.972 14.552-29.103 31.25-57.968 43.753-88l-3-1z"/><path style="fill:#dfb123;stroke:none" d="M120 218c16.426 39.453 37.461 80.097 59 117h1c-3.093-10.735-9.762-21.019-14.753-31l-29-58c-3.614-7.227-8.304-25.287-16.247-28z"/><path style="fill:#fff;stroke:none" d="M511 270c-.003 28.65-8.942 57.902-20.15 84-71.206 165.802-309.799 202.997-428.132 67-16.655-19.141-31.125-40.602-41.14-64C10.244 330.513 1.004 301.087 1 272H0v240h512V292l-1-22z"/><path style="fill:#e3b735;stroke:none" d="M221 334v1h28l-28-1z"/><path style="fill:#d9ad25;stroke:none" d="M179 336v1h72l-23-1h-49z"/></svg>