<svg width="700" height="446" fill="none" xmlns="http://www.w3.org/2000/svg"><g clip-path="url(#a)"><path d="M581.361 347.648c15.312-31.121 23.844-65.778 23.844-102.275C605.235 109.873 487.501 0 342.3 0 197.098 0 79.365 109.873 79.365 245.373c0 36.497 8.533 71.154 23.845 102.275h478.151Z" fill="#262443"/><path d="M655.191 384.709c21.645-2.342 38.841-7.48 38.409-11.475-.433-3.995-18.33-5.335-39.974-2.992-21.645 2.342-38.841 7.48-38.409 11.475.433 3.995 18.33 5.335 39.974 2.992ZM75.888 384.73c21.77 0 39.42-3.258 39.42-7.276 0-4.019-17.65-7.277-39.42-7.277-21.77 0-39.42 3.258-39.42 7.277 0 4.018 17.65 7.276 39.42 7.276Z" fill="#171533"/><path opacity=".4" d="M699.591 174.423c3.945 20.338-22.676 27.439-30.361 42.78-8.971 17.942 8.357 25.189 7.714 42.05-.526 13.705-15.253 31.997-23.757 42.196-12.273 14.727-19.754 12.828-27.819-2.66-7.597-14.581-16.539-29.484-36.819-37.987-15.458-6.488-3.097-20.894 1.023-33.839 9.526-29.835-43.598-48.245-30.273-84.508 6.662-18.118 20.922-10.783 32.728-19.725 16.714-12.682 1.724-36.673-.439-52.394-4.5-32.67 25.335-62.622 57.976-42.4 30.799 19.081 21.887 61.89 13.003 90.469-3.857 12.449-11.104 27.615 3.244 35.767 13.938 7.89 30.01-2.454 33.78 20.251Z" fill="#D1E9FF"/><path d="m637.261 307.088-.672-18.322c-.146-3.944-.321-8.182-.613-12.828-.614-9.877-2.163-19.724-3.682-29.28-1.315-8.299-2.659-16.86-3.419-25.539v-.029c-.964-13.939.117-27.936 1.198-41.495l.175-2.133c.205-2.542.439-5.581.643-8.65v-.087c6.604-42.956 5.669-80.944-2.864-116.156-.117-.526.205-1.08.731-1.198.526-.117 1.081.205 1.198.73 4.442 18.323 6.867 37.93 7.188 58.268.293 18.527-1.139 38.251-4.266 58.619a619.432 619.432 0 0 1-.643 8.62l-.175 2.133c-1.052 13.471-2.162 27.381-1.198 41.173.76 8.591 2.104 17.124 3.39 25.394 1.519 9.584 3.068 19.49 3.682 29.455.292 4.675.467 8.942.613 12.887l.672 18.321-1.958.117Z" fill="#98C3D9"/><path d="M630.774 227.898a.993.993 0 0 1-.964-.76c-8.24-34.072-21.828-53.007-31.764-62.913-10.695-10.637-19.49-13.296-19.578-13.325-.526-.146-.818-.702-.672-1.228.146-.526.701-.818 1.227-.672.38.117 9.351 2.835 20.426 13.822 6.458 6.429 12.273 14.348 17.299 23.582 6.283 11.484 11.309 25.042 14.991 40.296.117.526-.205 1.081-.731 1.198h-.234ZM635.654 260.538h-.117a.98.98 0 0 1-.876-1.081c1.782-17.007 4.909-31.763 9.234-43.803 3.477-9.701 7.743-17.679 12.711-23.757 8.562-10.49 16.159-11.659 16.481-11.688a.952.952 0 0 1 1.11.847.953.953 0 0 1-.847 1.111c-.117.029-7.335 1.198-15.371 11.191-7.539 9.322-17.328 28.404-21.331 66.304a1.007 1.007 0 0 1-.994.876Z" fill="#98C3D9"/><path d="M608.478 309.338c13.062-2.279 34.452-4.149 60.167.614 6.633 1.227 11.075 8.036 9.935 15.195l-6.165 38.719c-2.017 12.565-12.069 21.74-23.874 21.74h-17.855c-10.023 0-18.847-7.217-21.565-17.649l-10.783-41.407c-2.045-7.89 2.689-15.926 10.14-17.212Z" fill="#EBB04D"/><path d="M607.455 309.163c11.923-2.045 31.443-3.711 54.907.555 6.049 1.111 10.111 7.189 9.059 13.588l-5.64 34.657c-1.841 11.25-11.016 19.461-21.77 19.461h-16.305c-9.146 0-17.182-6.458-19.666-15.808l-9.848-37.053c-1.841-7.072 2.484-14.26 9.263-15.4Z" fill="#FDC25E"/><path opacity=".4" d="M.409 174.423c-3.945 20.338 22.676 27.439 30.361 42.78 8.971 17.942-8.357 25.189-7.714 42.05.526 13.705 15.253 31.997 23.757 42.196 12.273 14.727 19.87 12.886 27.819-2.66 4.353-8.591 7.363-18.117 14.523-24.955 6.37-6.078 16.071-7.305 22.296-13.032 12.36-11.338 3.097-20.894-1.023-33.839-9.556-29.835 43.569-48.245 30.244-84.538-6.663-18.117-20.923-10.782-32.728-19.724-16.715-12.682-1.724-36.673.438-52.394 4.5-32.67-25.335-62.622-57.975-42.4-30.8 19.081-21.887 61.89-13.004 90.469 3.858 12.448 11.105 27.614-3.243 35.767-13.91 7.919-29.981-2.425-33.751 20.28Z" fill="#D1E9FF"/><path d="M61.745 308.023h-.03a1.004 1.004 0 0 1-.964-1.022l.673-18.322c.146-3.945.321-8.211.613-12.887.614-9.964 2.192-19.87 3.682-29.455 1.286-8.27 2.63-16.802 3.39-25.394.964-13.792-.117-27.731-1.198-41.173l-.176-2.133a635.316 635.316 0 0 1-.642-8.62c-3.127-20.367-4.559-40.092-4.267-58.618.322-20.338 2.747-39.946 7.189-58.268.117-.526.672-.847 1.198-.73.526.116.847.672.73 1.198-8.532 35.212-9.468 73.199-2.863 116.155v.088c.233 3.097.467 6.107.642 8.649l.176 2.133c1.052 13.53 2.162 27.527 1.198 41.495v.029c-.76 8.65-2.104 17.241-3.42 25.54-1.49 9.555-3.038 19.403-3.681 29.279a494.433 494.433 0 0 0-.614 12.829l-.672 18.322c0 .496-.438.905-.964.905Z" fill="#98C3D9"/><path d="M69.196 227.898c-.087 0-.146 0-.233-.029-.526-.117-.848-.672-.731-1.198 3.682-15.225 8.737-28.783 14.99-40.297 5.027-9.234 10.842-17.153 17.3-23.581 11.045-10.988 20.046-13.705 20.425-13.822.526-.146 1.082.146 1.228.672.146.526-.146 1.081-.672 1.227-.146.03-9.001 2.776-19.696 13.442-9.906 9.877-23.435 28.813-31.646 62.797-.088.497-.497.789-.965.789ZM64.346 260.538c-.497 0-.935-.379-.994-.876-4.032-38.163-13.91-57.245-21.507-66.537-8.065-9.906-15.137-10.958-15.224-10.988-.555-.087-.935-.584-.848-1.11.088-.555.585-.935 1.11-.847.322.058 7.92 1.198 16.482 11.688 4.967 6.078 9.234 14.056 12.711 23.757 4.325 12.039 7.422 26.796 9.234 43.803a.986.986 0 0 1-.877 1.081c-.029.029-.058.029-.087.029Z" fill="#98C3D9"/><path d="M34.569 309.338c13.062-2.279 34.452-4.149 60.167.614 6.633 1.227 11.075 8.036 9.935 15.195l-6.166 38.719c-2.016 12.565-12.068 21.74-23.873 21.74H56.776c-10.023 0-18.848-7.217-21.565-17.649L24.429 326.55c-2.045-7.89 2.688-15.926 10.14-17.212Z" fill="#EBB04D"/><path d="M33.575 309.163c11.923-2.045 31.443-3.711 54.907.555 6.05 1.111 10.111 7.189 9.06 13.588l-5.64 34.657c-1.842 11.25-11.017 19.461-21.77 19.461H53.825c-9.147 0-17.182-6.458-19.666-15.808l-9.848-37.053c-1.87-7.072 2.455-14.26 9.263-15.4Z" fill="#FDC25E"/><path d="M155.137 342.008h377.716c4.384 0 8.475 1.169 10.988 3.097l114.314 88.425c6.253 4.85-.117 11.513-10.987 11.513H63.264c-10.286 0-16.773-6.02-11.688-10.9l91.901-88.424c2.367-2.279 6.838-3.711 11.66-3.711Z" fill="#262443"/><path d="M355.216 419.357c135.661 0 245.636-12.416 245.636-27.731 0-15.316-109.975-27.731-245.636-27.731s-245.635 12.415-245.635 27.731c0 15.315 109.974 27.731 245.635 27.731Z" fill="#2F2D51"/><path d="M553.221 377.512H142.075a.941.941 0 0 1-.935-.935v-4.471h413.045v4.442c-.029.526-.438.964-.964.964Z" fill="#2C659B"/><path d="M161.77 367.927h-11.66c-3.009 0-5.435 2.66-5.435 5.962v23.494c0 3.272 2.426 5.961 5.435 5.961h11.66c3.01 0 5.435-2.659 5.435-5.961v-23.494c-.029-3.302-2.455-5.962-5.435-5.962ZM545.36 367.927h-11.659c-3.01 0-5.435 2.66-5.435 5.962v23.494c0 3.272 2.425 5.961 5.435 5.961h11.659c3.01 0 5.435-2.659 5.435-5.961v-23.494c-.029-3.302-2.454-5.962-5.435-5.962Z" fill="#2C659B"/><path d="M554.244 312.786H138.802v60.372h415.442v-60.372ZM330.115 151.659H158.497c-9.555 0-17.299 8.504-17.299 18.965v112.094h206.538V170.975c0-10.666-7.89-19.316-17.621-19.316Z" fill="#8EBBE6"/><path d="M536.623 151.659H364.391c-10.052 0-18.234 8.942-18.234 19.988v111.071h208.086V171.004c0-10.695-7.89-19.345-17.62-19.345Z" fill="#8EBBE6"/><path d="M545.565 274.769H149.556v42.751h396.009v-42.751Z" fill="#83B1DE"/><path d="M197.391 219.891c3.841 0 6.955-3.074 6.955-6.867 0-3.792-3.114-6.867-6.955-6.867s-6.954 3.075-6.954 6.867c0 3.793 3.113 6.867 6.954 6.867Z" fill="#60A1DC"/><path d="M197.391 235.467a.817.817 0 0 1-.818-.819v-43.247c0-.439.38-.819.818-.819.468 0 .819.38.819.819v43.247a.817.817 0 0 1-.819.819Z" fill="#5EA0DB"/><path d="M219.22 213.843h-43.686a.817.817 0 0 1-.819-.819c0-.438.38-.818.819-.818h43.686c.467 0 .818.38.818.818a.817.817 0 0 1-.818.819Z" fill="#5EA0DB"/><path d="M285.757 219.891c3.841 0 6.955-3.074 6.955-6.867 0-3.792-3.114-6.867-6.955-6.867s-6.955 3.075-6.955 6.867c0 3.793 3.114 6.867 6.955 6.867Z" fill="#60A1DC"/><path d="M285.757 235.467a.817.817 0 0 1-.818-.819v-43.247c0-.439.38-.819.818-.819.468 0 .818.38.818.819v43.247c0 .439-.35.819-.818.819Z" fill="#5EA0DB"/><path d="M307.615 213.843h-43.686a.817.817 0 0 1-.819-.819c0-.438.38-.818.819-.818h43.686c.467 0 .818.38.818.818 0 .439-.38.819-.818.819Z" fill="#5EA0DB"/><path d="M404.074 219.891c3.841 0 6.955-3.074 6.955-6.867 0-3.792-3.114-6.867-6.955-6.867s-6.954 3.075-6.954 6.867c0 3.793 3.113 6.867 6.954 6.867Z" fill="#60A1DC"/><path d="M404.074 235.467a.817.817 0 0 1-.818-.819v-43.247c0-.439.38-.819.818-.819.468 0 .818.38.818.819v43.247c0 .439-.35.819-.818.819Z" fill="#5EA0DB"/><path d="M425.932 213.843h-43.686a.817.817 0 0 1-.818-.819c0-.438.38-.818.818-.818h43.686c.468 0 .818.38.818.818 0 .439-.38.819-.818.819Z" fill="#5EA0DB"/><path d="M492.762 219.891c3.841 0 6.954-3.074 6.954-6.867 0-3.792-3.113-6.867-6.954-6.867-3.841 0-6.955 3.075-6.955 6.867 0 3.793 3.114 6.867 6.955 6.867Z" fill="#60A1DC"/><path d="M492.762 235.467a.817.817 0 0 1-.819-.819v-43.247c0-.439.38-.819.819-.819.438 0 .818.38.818.819v43.247c.029.439-.351.819-.818.819Z" fill="#5EA0DB"/><path d="M514.619 213.843h-43.686a.817.817 0 0 1-.818-.819c0-.438.38-.818.818-.818h43.686c.468 0 .819.38.819.818a.817.817 0 0 1-.819.819Z" fill="#5EA0DB"/><path d="M550.854 274.769H147.247v24.079h403.607v-24.079Z" fill="#B7DBFE"/><path d="M578.468 217.203h-21.945c-6.02 0-10.871 5.348-10.871 11.922v132.111c0 6.574 4.88 11.922 10.871 11.922h21.945c6.02 0 10.87-5.348 10.87-11.922V229.125c0-6.604-4.88-11.922-10.87-11.922ZM138.597 217.203h-21.945c-6.019 0-10.87 5.348-10.87 11.922v132.111c0 6.574 4.88 11.922 10.87 11.922h21.945c6.02 0 10.871-5.348 10.871-11.922V229.125c.029-6.604-4.851-11.922-10.871-11.922Z" fill="#8EBBE6"/><path d="M226.525 150.841c-5.64-1.227 10.14-.263 11.309 2.484 2.425 5.698-38.339 1.49-42.547.935-6.955-.906-33.546-5.406-27.351 8.825 3.419 7.802 25.539 1.344 25.978 7.919.818 12.565-32.728 1.929-36.352-3.273-4.354-6.253 2.543-18.468 5.348-22.559 2.337-4.88 1.286-8.503 3.828-12.623 6.019-9.731 17.562-13.501 28.549-13.705 11.981-.234 29.514 3.389 34.774 15.516 1.022 2.338-1.315 8.182-.351 9.643.994 1.491 11.718 3.741 10.637 6.897-.965 2.717-12.77.175-13.822-.059Z" fill="#2F547A"/><path d="M218.226 129.013c1.665-.585 5.698-1.578 10.344.087.38.147.789.03 1.052-.233 1.052-1.111 3.974-3.77 7.306-3.974a.986.986 0 0 1 .964.584c.467 1.052 1.286 3.419.234 5.757-.643 1.461-2.221 2.367-1.754 3.36.643 1.403.468 4.412.468 4.938 0 3.244-1.753 5.903-2.075 6.341-3.682 5.465-15.312 9.001-26.416.702-.029-.029-7.802-7.306.205-14.699.204-.175.292-.438.292-.701 0-1.344.087-5.464 1.315-7.627a.962.962 0 0 1 1.023-.467c1.198.234 3.798 1.227 5.873 5.464.175.439.701.643 1.169.468Z" fill="#1A3F63"/><path d="M534.957 157.007h-84.508a6.198 6.198 0 0 0-6.195 6.195v22.939a6.198 6.198 0 0 0 6.195 6.195h.35a.946.946 0 0 1 .936 1.081c-.205 1.315-1.14 3.506-4.734 4.646-.205.058-.146.38.058.38 2.805-.059 9.234-.731 12.974-5.64.234-.292.556-.467.936-.467h73.988a6.198 6.198 0 0 0 6.195-6.195v-22.91c0-3.448-2.776-6.224-6.195-6.224Z" fill="#fff"/><path d="M458.397 181.319a2.47 2.47 0 0 1-2.046-1.052l-5.844-8.153c-.467-.672-.321-1.607.351-2.074.672-.468 1.607-.322 2.074.35l5.465 7.598 7.773-13.121c.409-.701 1.344-.935 2.045-.525.702.409.936 1.344.526 2.045l-8.123 13.705a2.499 2.499 0 0 1-2.075 1.227h-.146ZM534.84 167.118h-60.108a1.172 1.172 0 0 1-1.169-1.169c0-.643.526-1.169 1.169-1.169h60.108c.643 0 1.169.526 1.169 1.169s-.526 1.169-1.169 1.169ZM494.427 175.387h-19.695a1.172 1.172 0 0 1-1.169-1.169c0-.643.526-1.169 1.169-1.169h19.695c.643 0 1.169.526 1.169 1.169s-.526 1.169-1.169 1.169ZM534.84 175.387h-34.13a1.172 1.172 0 0 1-1.169-1.169c0-.643.526-1.169 1.169-1.169h34.13c.643 0 1.169.526 1.169 1.169s-.526 1.169-1.169 1.169ZM512.486 182.868h-37.754a1.172 1.172 0 0 1-1.169-1.169c0-.643.526-1.169 1.169-1.169h37.754c.643 0 1.169.526 1.169 1.169-.03.643-.526 1.169-1.169 1.169Z" fill="#8FBBE5"/><path d="M196.865 209.839h84.508a6.198 6.198 0 0 1 6.195 6.195v22.91a6.198 6.198 0 0 1-6.195 6.195h-.35a.944.944 0 0 0-.935 1.081c.204 1.315 1.139 3.507 4.733 4.646.205.059.147.38-.058.38-2.805-.058-9.234-.73-12.974-5.64a1.178 1.178 0 0 0-.935-.467h-73.989a6.198 6.198 0 0 1-6.195-6.195v-22.91a6.198 6.198 0 0 1 6.195-6.195Z" fill="#fff"/><path d="M204.316 235.32a2.465 2.465 0 0 1-2.045-1.052l-5.844-8.152c-.468-.672-.322-1.608.35-2.075.672-.468 1.607-.321 2.075.351l5.464 7.597 7.773-13.12c.409-.702 1.344-.935 2.046-.526.701.409.935 1.344.526 2.045l-8.124 13.705a2.495 2.495 0 0 1-2.075 1.227h-.146ZM280.117 218.781h-58.823a1.172 1.172 0 0 1-1.169-1.169c0-.643.526-1.169 1.169-1.169h58.794c.643 0 1.169.526 1.169 1.169s-.526 1.169-1.14 1.169ZM238.535 225.414h-17.212a1.172 1.172 0 0 1-1.169-1.169c0-.642.526-1.168 1.169-1.168h17.212c.642 0 1.168.526 1.168 1.168 0 .643-.526 1.169-1.168 1.169ZM259.895 225.414h-17.211a1.172 1.172 0 0 1-1.169-1.169c0-.642.526-1.168 1.169-1.168h17.211c.643 0 1.169.526 1.169 1.168 0 .643-.526 1.169-1.169 1.169ZM281.256 225.414h-16.89a1.172 1.172 0 0 1-1.169-1.169c0-.642.526-1.168 1.169-1.168h16.89c.643 0 1.169.526 1.169 1.168 0 .643-.526 1.169-1.169 1.169ZM255.104 231.726h-33.81a1.172 1.172 0 0 1-1.169-1.169c0-.643.526-1.169 1.169-1.169h33.81c.642 0 1.168.526 1.168 1.169-.029.643-.526 1.169-1.168 1.169ZM249.961 237.687h-28.667a1.172 1.172 0 0 1-1.169-1.168c0-.643.526-1.169 1.169-1.169h28.667c.643 0 1.168.526 1.168 1.169 0 .642-.525 1.168-1.168 1.168ZM275.149 237.687h-20.864a1.172 1.172 0 0 1-1.169-1.168c0-.643.526-1.169 1.169-1.169h20.864c.643 0 1.169.526 1.169 1.169-.029.642-.555 1.168-1.169 1.168Z" fill="#8FBBE5"/><path d="M409.948 293.5h-87.781v10.754h87.781V293.5Z" fill="#2A4B6E"/><path d="M341.92 166.884c-15.867-9.176-25.422-31.238-25.539-48.975-.205-26.68 21.653-20.865 34.481-36.79 12.215-15.166 10.432-29.456 34.715-30.361 9.176-.351 18.176 2.337 27.498 1.636 10.695-.789 22.296-9.146 32.494-7.685 23.494 3.36 7.188 26.591 3.273 38.075-2.718 7.978-.263 18.439-4.237 25.861-4.53 8.387-14.114 8.942-20.835 14.962-13.501 12.156-10.578 30.565-27.761 41.085-16.188 9.906-37.52 12.945-54.089 2.192Z" fill="#193759"/><path d="M373.333 311.705s-14.289 11.543-47.456 9.994c0 0-17.27-1.461-10.987 10.023 0 0 5.26 7.627 27.468 4.646 0 0 9.731-1.256 21.507-4.325 5.669-1.49 13.179-5.23 17.708-6.078l-8.24-14.26Z" fill="#FF94A6"/><path d="m405.009 291.542 2.016-20.922 9.789-3.039s24.809-.175 41.144 10.783c0 0 13.822 10.636 2.542 21.594 0 0-9.964 10.958-56.66 21.244 0 0-23.231 3.741-33.721 8.825-.76.351-1.637.205-2.221-.409-1.929-2.045-5.786-6.896-5.085-12.098a1.848 1.848 0 0 1 1.052-1.432c2.572-1.227 10.578-5.201 16.861-10.227 0 0 23.114-16.861 42.839-19.403" fill="#213F61"/><path d="M408.837 290.257a.483.483 0 0 1-.438-.263.467.467 0 0 1 .234-.643c.087-.029 8.357-4.062 17.766-5.055a.487.487 0 0 1 .526.438.487.487 0 0 1-.438.526c-9.205.964-17.358 4.909-17.416 4.967-.088.03-.146.03-.234.03Z" fill="#EDF9FF"/><path d="m338.034 237.717-6.078 10.782 3.039 13.676-16.013 13.325s-17.212-18.205-12.156-31.705c0 0 16.86-51.781 34.422-54.995 0 0 10.286-2.864 12.157-3.215 0 0 8.766-1.694 5.055-12.156l16.364-2.191s-2.016 12.302 10.461 15.516c0 0 14.494 1.52 19.403 7.773 0 0 11.981 13.676 18.205 30.011 0 0 8.942 22.938 0 37.608 0 0-5.99 12.74-15.253 20.162l-10.783-25.627s15.195-2.542 1.169-21.77l-59.992 2.806Z" fill="#FF94A6"/><path d="M342.943 251.889h49.764s10.14-8.094 4.734-23.319c-1.753-4.967-7.86-8.795-7.188-23.406.233-4.88 2.104-16.919 2.104-16.919s-3.361-2.66-5.231-1.491l-1.841 19.549s-.993 9.322-5.815 10.871c-2.396.789-14.552 2.425-22.179-.555-5.786-2.25-5.289-9.965-6.137-15.4l-2.133-14.815s-6.078 0-6.078 1.49c0 0 2.221 13.997 2.25 14.348 1.169 9.877.176 11.688-1.753 14.523-2.046 3.01-5.698 8.269-6.633 10.461-2.572 6.166-3.156 15.195 6.136 24.663Z" fill="#FDC25E"/><path d="M358.752 174.394s10.257 1.256 15.926-1.345c0 0-.205 2.134.467 4.062 0 0-7.188 10.549-15.838 1.841.029 0 .088-3.448-.555-4.558Z" fill="#F07D90"/><path d="M317.959 247.681h92.544a2.626 2.626 0 0 1 2.63 2.922l-3.916 39.771s-16.685 7.597-23.289 11.98h-39.507l-23.933-.379-7.071-51.43c-.146-1.549 1.022-2.864 2.542-2.864Z" fill="#B7DBFE"/><path d="M370.151 279.33a4.646 4.646 0 1 0-8.585-3.556 4.646 4.646 0 0 0 8.585 3.556Z" fill="#fff"/><path d="M365.853 284.354a6.784 6.784 0 0 1-6.78-6.779 6.784 6.784 0 0 1 6.78-6.78 6.784 6.784 0 0 1 6.779 6.78 6.784 6.784 0 0 1-6.779 6.779Zm0-12.916c-3.361 0-6.108 2.747-6.108 6.107 0 3.361 2.747 6.108 6.108 6.108 3.36 0 6.107-2.747 6.107-6.108a6.105 6.105 0 0 0-6.107-6.107Z" fill="#fff"/><path d="M347.18 363.895s.994 16.714 15.371 47.426c0 0 9.438 14.523-5.289 15.225 0 0-10.286-.526-17.446-21.858 0 0-3.185-9.351-5.435-21.478-1.081-5.815-3.74-13.705-4.967-18.176l17.766-1.139Z" fill="#FF94A6"/><path d="M296.51 276.114s18.877-18.556 30.916 8.123c0 0 11.134 30.946 14.553 50.904 0 0 5.756 28.374 9.263 42.137a3.75 3.75 0 0 1-2.688 4.53c-3.858.993-10.023 2.279-14.348 1.665a3.763 3.763 0 0 1-2.922-2.221c-2.952-6.458-13.705-30.127-17.709-39.244 0 0-18.877-37.52-19.549-42.897 0 0-4.149-14.552 2.484-22.997Z" fill="#213F61"/><path d="M387.564 142.192c-13.354-5.406-22.237-15.283-26.591-21.069-3.653 8.153-13.238 19.9-16.394 23.669-.087 15.926 8.358 24.722 8.358 24.722 13.237 15.867 26.942 1.139 26.942 1.139 9.731-9.117 7.802-27.497 7.802-27.497a10.97 10.97 0 0 1-.117-.964Z" fill="#FF94A6"/><path d="M360.972 125.097c4.354 5.786 13.238 15.634 26.592 21.069.029.321.058.643.088.993 0 0 .058.702.116 1.87.147-3.477-.116-5.844-.116-5.844-.03-.321-.059-.672-.088-.993-13.354-5.406-22.238-15.283-26.592-21.069-3.652 8.153-13.237 19.9-16.393 23.669 0 1.315.059 2.572.146 3.799 3.302-3.945 12.653-15.458 16.247-23.494Z" fill="#F07D90"/><path d="m371.434 167.147-9.994-.088c-.233 0-.35.234-.234.409 1.14 1.724 5.903 8.065 10.462.088.117-.205 0-.409-.234-.409Z" fill="#fff"/></g><defs><clipPath id="a"><path fill="#fff" d="M0 0h700v445.043H0z"/></clipPath></defs></svg>