<svg width="550" height="431" fill="none" xmlns="http://www.w3.org/2000/svg"><path d="M298.219 7.45C296.072-.65 284.788-.856 276.55.875c-38.216 7.961-81 21.807-118.246 33.576-22.084 7.27-43.545 16.408-64.107 27.208-6.23 3.254-13.361 9.83-9.9 15.923 2.493 4.361 8.723 4.5 13.777 3.946 52.892-5.538 104.953-18.415 154.314-38.215 13.915-5.608 27.831-11.838 39.046-21.738 4.154-3.6 8.169-8.793 6.785-14.123ZM496.841 304.656c.623 11.146-.831 23.053-6.3 33.923-.139.207-.208.415-.346.623-.07.138-.139.207-.208.346a28.596 28.596 0 0 1-1.108 2.007c-1.938 3.254-4.223 6.439-6.923 9.416-3.392 3.738-7.615 7.061-12.461 10.107-.623.416-1.246.762-1.869 1.108-1.385.831-2.839 1.592-4.293 2.354-29.353 15.369-74.699 20.977-100.106 22.984-6.3.139-12.6.485-18.831 1.039-10.938 1.038-21.738 2.769-32.469 5.261-36.692 8.446-71.169 25.062-107.999 32.954-32.954 7.061-70.13 5.954-97.684-12.392-5.815-3.877-10.384-9.208-13.569-15.439-3.53-7.061-6.508-13.361-9.623-19.315-.485-.9-.97-1.869-1.454-2.769l-.207-.416c-3.808-7.061-7.893-13.846-13.57-20.907-.83-1.039-1.73-2.146-2.63-3.254-.485-.554-.9-1.108-1.454-1.661-.139-.139-.277-.347-.416-.554a138.825 138.825 0 0 0-4.5-4.916c-5.538-5.746-11.422-11.076-17.169-16.684-.484-.485-1.038-.969-1.523-1.454l-1.177-1.177c-1.523-1.523-3.046-3.115-4.569-4.707-27.138-29.908-39.53-72.761-32.4-112.569 7.131-39.807 33.646-75.668 69.577-94.153 6.577-3.392 13.43-6.23 20.423-8.584.9-.346 1.869-.623 2.769-.9 23.123-7.477 47.907-10.593 71.93-15.023a626.132 626.132 0 0 0 142.06-44.17c7.546-3.391 15.023-6.922 22.569-10.453.9-.415 1.87-.83 2.77-1.315 24.161-11.285 48.53-22.223 74.768-26.654 11.285-1.938 22.915-2.63 33.992-.07 29.631 6.785 50.469 37.316 50.469 67.639 0 34.684-22.708 66.53-22.015 101.214.207 12.323 3.461 24.231 8.238 35.585 4.5 10.73 10.454 20.976 16.754 30.738l1.246 1.869c4.223 6.577 8.654 13.015 12.946 19.592l-14.4 32.331c.277 2.769.554 5.607.762 8.446Z" fill="#F7F9FB"/><path d="M490.543 338.579c-.139.207-.208.415-.347.623l-317.42 32.469h-.277L63.877 350.555c-.138-.138-.277-.346-.415-.553a138.82 138.82 0 0 0-4.5-4.916c-5.539-5.746-11.423-11.077-17.17-16.684-.484-.485-1.038-.97-1.523-1.454l285.852-13.708 132.714-6.369 33.231-1.938 4.707-.277c.693 11.215-.761 23.053-6.23 33.923Z" fill="#B29EEF"/><path d="M334.082 33.966v189.69c0 .762-.623 1.385-1.385 1.385a1.39 1.39 0 0 1-1.385-1.385V35.212c.9-.416 1.8-.83 2.77-1.246Z" fill="#E1CCFF"/><path d="M490.055 339.548a28.992 28.992 0 0 1-1.107 2.007c-1.939 3.254-4.223 6.439-6.923 9.416-3.393 3.738-7.616 7.061-12.462 10.107-.623.416-1.246.762-1.869 1.108l-251.513 28.938-39.6 4.569-.692-12.6-.485-9.346h.07l20.838-2.284 293.743-31.915Z" fill="#fff"/><path d="M94.683 104.927v200.629c0 .761-.623 1.384-1.384 1.384a1.388 1.388 0 0 1-1.385-1.384V105.827c.97-.347 1.87-.623 2.77-.9Z" fill="#E1CCFF"/><path d="M201.088 202.264c-3.807-7.476-11.284-12.323-22.292-14.469-6.715-1.315-14.746-1.661-24.092-.969-43.13 3.185-74.838 11.7-94.291 25.269-13.292 9.277-18.9 26.515-13.639 41.954l24.023 70.684.831 2.423 62.584-4.431 14.538-1.039h.277l.208-.207s.069-.07.138-.208c1.8-2.146 18.277-22.223 32.539-45.9 20.353-33.645 26.792-58.291 19.176-73.107Zm-52.753 118.107-49.569 3.462-22.776 1.592-3.393.277-.346-.969-24.23-71.169c-5.054-14.885.346-31.5 13.084-40.361 14.33-9.969 35.515-17.239 63.207-21.531h.139c9.346-1.454 19.453-2.561 30.253-3.392 3.185-.208 6.231-.346 9.069-.346 18.762 0 30.877 5.054 36 15.092 17.238 33.438-47.423 112.499-51.438 117.345Z" fill="#54238E"/><path d="m76.268 326.463-24.715-72.691c-5.123-15.162.207-31.985 13.36-41.123 15.3-10.662 43.131-21.323 93.946-25.131 113.053-8.377-6.023 133.545-6.023 133.545l-76.568 5.4Z" fill="#54238E"/><path d="M283.057 68.65c.554-2.146.692-4.085.623-5.954-.069-1.869-.277-3.807-.415-5.884a26.222 26.222 0 0 0-.9-3.877c-1.523-5.054-4.639-9.762-8.723-13.223-8.1-6.854-19.039-9.416-29.631-9.762-15.854-.553-33.092 4.223-42.507 16.962-8.1 10.869-9.069 25.2-12.739 38.284-6.023 21.461-19.73 40.015-35.445 55.73-9.208 9.208-19.731 18.623-22.154 31.431-2.354 12.6 4.223 25.753 14.331 33.576 3.669 2.839 7.892 5.123 12.392 6.231 4.569 1.108 9.415 1.039 14.123.277 14.33-2.423 26.653-11.215 38.769-19.246 1.246-.831 2.423-1.592 3.669-2.492 8.792-6.646 9.484-18.415 16.407-26.723 1.247-1.662 2.423-2.838 3.739-3.6 16.338-.554 43.338-9.554 47.561 13.5.415 1.246.9 2.561 1.385 3.738 2.007 4.846 4.707 8.793 10.869 9.139 1.038.069 2.146.138 3.253.138 5.4-.069 10.939-1.454 14.677-5.261 4.016-4.016 5.331-10.039 5.331-15.716a44.82 44.82 0 0 0-5.954-22.638 55.46 55.46 0 0 0-5.192-7.477 69.21 69.21 0 0 0-2.977-3.392c-14.538-9.969-24.231-26.584-22.223-44.446 0-1.73.069-3.461.208-5.192.346-5.192 1.108-10.454 1.938-15.577l-.415 1.454Z" fill="#400F58"/><path d="M276.414 71.489c-3.254 9.692.969 19.73 7.199 27.276 7.754 9.416 17.723 16.339 24.369 26.723 6.647 10.385 11.977 23.608 9.277 36.069-1.107 5.123-3.946 7.269-8.792 8.585-4.084 1.107-7.961 2.284-11.492 4.776-.831.554-.069 1.939.761 1.316 4.085-2.839 8.516-3.669 13.154-5.192 2.908-.97 5.262-2.562 6.646-5.331 4.639-9.485.969-22.569-3.115-31.569-5.123-11.285-13.015-19.8-21.877-28.246-9.069-8.654-19.177-20.492-14.607-33.992.277-.97-1.177-1.385-1.523-.415Z" fill="#400F58"/><path d="m224.213 151.795 8.031-5.884 10.246-4.846 31.569 10.73 13.5 142.684-34.823 8.792-24.023-72.345-4.5-79.131Z" fill="#fff"/><path d="M288.319 131.442c13.085 2.631 25.477 10.038 32.4 21.669 7.2 12.115 7.338 27.969-.623 39.738-.554.831.761 1.592 1.315.761 8.1-11.907 8.1-27.969 1.177-40.43-6.992-12.461-20.007-20.561-33.853-23.33-.97-.07-1.385 1.384-.416 1.592ZM182.259 113.027c-10.246 8.03-20.008 16.684-30.254 24.784-8.1 6.369-17.1 12.046-22.777 20.908-11.215 17.446-3.046 38.976 12.393 50.745 8.653 6.577 20.423 11.839 31.361 8.446.969-.277.554-1.8-.415-1.523-10.039 3.116-20.77-1.523-28.939-7.407-8.1-5.816-14.607-14.123-17.1-23.885-2.423-9.484-.415-19.592 5.331-27.484 5.608-7.685 13.846-12.808 21.185-18.623 10.246-8.1 20.007-16.685 30.253-24.784.831-.693-.277-1.8-1.038-1.177ZM317.396 333.871l-104.746-2.492c0-2.839 2.147-5.193 4.916-5.47l108.137-11.7-8.307 19.662Z" fill="#400F58"/><path d="M197.905 74.812c-1.246 12.046-3.739 24.092-8.931 35.099-5.123 10.939-13.223 19.454-21.531 28.038-7.407 7.685-14.815 15.785-18.484 26.031-3.046 8.515-2.354 17.792 1.661 25.892 4.016 8.1 11.423 13.985 20.7 13.777.97 0 1.039-1.592 0-1.523-9.415.208-16.476-6.3-20.076-14.539-4.293-9.899-2.908-20.492 2.284-29.768 5.262-9.485 13.431-16.893 20.769-24.716 7.062-7.477 13.085-15.507 17.169-24.992 4.5-10.523 6.785-21.807 7.962-33.161.138-1.108-1.454-1.108-1.523-.138ZM275.512 103.681c-.069 13.499 11.077 22.292 19.315 31.43 4.916 5.4 9.277 11.631 9.692 19.177.485 7.407-2.63 14.607-8.03 19.523-.762.692.346 1.8 1.107 1.107 9.762-8.861 10.939-22.984 3.877-33.853-7.961-12.323-24.507-21.115-24.438-37.384 0-1.039-1.523-1.039-1.523 0Z" fill="#fff"/><path d="M269.557 150.411c3.046 6.438.346 13.984 1.384 20.977 5.954 40.915 4.431 82.868 5.054 124.129.069 6.3.346 13.016 4.292 17.931.762.9 1.662 1.8 2.77 2.146.9.277 1.869.208 2.838.139 13.361-.831 26.792-1.593 40.153-2.424-4.361-25.684-8.723-51.368-13.015-77.122 10.454 12.946 20.908 25.892 31.292 38.838 4.431-11.561 8.862-23.123 13.223-34.684.554-1.385 1.039-2.839.831-4.292-.208-1.316-.9-2.423-1.662-3.531a757.568 757.568 0 0 0-32.192-44.931c-6.853-8.861-13.984-17.653-23.053-24.161-9.277-6.784-20.839-10.315-31.915-13.015Z" fill="#FDCB22"/><path d="M320.719 307.91c0 .9-.692 1.661-1.385 2.146-1.384.9-2.977 1.246-4.638 1.454-7.338.969-14.885-.139-21.531-3.323 2.7 3.669 5.4 7.269 8.17 10.938.346.484.761 1.038.553 1.661-.138.485-.553.762-.969 1.039-.554.346-1.108.623-1.731.9a18.064 18.064 0 0 1-10.107 1.523c-7.269-.969-13.431-6.3-20.769-7.269-3.669-.485-7.408.138-11.146.346-3.739.208-7.685-.069-10.731-2.215-.762-.485-1.385-1.177-1.731-2.008-.83-2.077.762-4.292 2.077-6.162.416-.553.762-1.177 1.177-1.8 1.869-3.115 3.185-6.576 3.808-10.176 4.015-.277 9.138-1.593 13.015-2.631 5.677-1.523 11.769-3.877 17.1-1.523 1.246.554 2.423 1.315 3.531 2.077 9.415 6.3 19.661 12.669 31.015 12.669 1.73.138 4.292.554 4.292 2.354Z" fill="#FFB9A3"/><path d="M299.188 322.794a18.056 18.056 0 0 1-10.107 1.523c-7.269-.969-13.431-6.3-20.769-7.269-3.669-.485-7.408.138-11.146.346-3.739.208-7.685-.069-10.731-2.215-.762-.485-1.385-1.177-1.731-2.008-.83-2.077.762-4.292 2.077-6.161.416-.554.762-1.177 1.177-1.8 2.631 1.938 8.238 4.223 18.831 2.907 16.753-2.077 13.292 7.616 25.269 11.077 3.807 1.246 5.954 2.492 7.13 3.6Z" fill="#FF9B8D"/><path d="M280.012 49.82c-7.131-23.054-33.992-28.316-54.899-22.985-10.108 2.561-19.662 7.962-26.308 16.061-7.892 9.623-10.938 22.016-12.807 34.062-1.177 7.823-1.8 15.784-3.6 23.538-1.039 4.5-3.462 8.515-5.054 12.808-.346.969 1.177 1.315 1.523.415 1.246-3.254 2.977-6.3 4.154-9.554 1.73-4.915 2.353-10.384 3.046-15.507 1.661-12.185 2.907-24.785 8.377-35.93 9.692-19.732 32.122-28.316 53.238-25.755 14.123 1.731 26.515 9.139 30.876 23.262.277.969 1.731.554 1.454-.416Z" fill="#400F58"/><path d="M228.85 85.75c-7.2-2.146-10.8.761-11.7 5.815-.9 5.054 3.738 10.385 8.93 10.177.485 6.3 1.385 12.6 3.946 18.346 2.562 5.746 6.854 10.938 12.67 13.362 6.507 2.7 14.399 1.453 19.73-3.116 2.146-1.8 3.877-4.084 5.469-6.369 4.985-6.992 9.277-14.677 11.146-23.054 1.87-8.377 1.177-17.584-3.392-24.922-.484-.762-1.038-1.593-1.869-2.008-1.177-.623-2.631-.346-3.877 0-13.846 3.738-26.792 11.838-41.053 11.769Z" fill="#FFB9A3"/><path d="M282.434 55.22c1.039 3.669 2.077 7.407 1.939 11.215-.139 3.807-1.662 7.754-4.846 9.9-2.493 1.661-5.677 2.007-8.585 2.977-5.815 1.938-10.315 6.507-14.884 10.661-4.293 3.946-9.693 7.823-15.369 6.715-5.262-1.038-8.723-6.023-10.87-10.938-1.177-2.63-2.077-5.538-1.453-8.308.415-1.592 1.315-3.046 2.284-4.361 5.746-7.546 15.023-11.7 24.438-13.085 9.346-1.454 18.9-.484 28.316.485l-.97-5.262Z" fill="#400F58"/><path d="M230.027 86.027c2.008 11.907 15.577 17.792 25.546 10.8 4.708-3.323 7.823-8.377 11.908-12.323 4.361-4.223 12.046-6.023 13.292-12.739.208-.969-1.315-1.384-1.523-.415-1.108 6.023-8.1 7.754-12.185 11.354-3.253 2.908-5.815 6.577-8.861 9.761-4.085 4.223-9.415 6.854-15.369 5.539-6.092-1.316-10.315-6.37-11.285-12.392-.207-.97-1.73-.554-1.523.415Z" fill="#400F58"/><path d="M490.543 338.579c-.139.207-.208.415-.347.623-.069.138-.138.207-.207.346a29.262 29.262 0 0 1-1.108 2.008l-292.705 29.907-20.838 2.146v.139l.484 9.346.623 12.738 39.669-4.708 253.383-30.046c-.623.416-1.247.762-1.87 1.108-1.384.831-2.838 1.592-4.292 2.354l-288.067 34.13h-.138c-.346 0-.623-.138-.9-.346a1.321 1.321 0 0 1-.485-.969l-1.177-24.992c0-.277.07-.485.139-.692.208-.416.623-.693 1.038-.693l316.798-32.399Z" fill="#6737C3"/><path d="M175.335 372.57a1.414 1.414 0 0 1-1.385 1.108h-.277l-.9-.208-106.13-20.976-1.315-.277c-.623-.692-1.246-1.454-1.869-2.216.277-.553.83-.83 1.454-.692l109.314 21.6c.762.208 1.246.9 1.108 1.661ZM176.512 397.632a1.414 1.414 0 0 1-1.385 1.108h-.277l-91.73-19.108c-.484-.9-.969-1.869-1.453-2.769l-.208-.416 92.145 19.177 1.8.346c.831.139 1.316.9 1.108 1.662ZM135.39 324.109c0 .762-.554 1.385-1.315 1.454l-92.215 2.908-2.7-2.7 31.708-1.039 1.453-.069 3.462-.138 23.054-.762 25.615-.831 9.553-.276h.208a1.722 1.722 0 0 1 1.177 1.453Z" fill="#6737C3"/><path d="M417.129 152.887a7.407 7.407 0 1 0-14.415-3.419 7.407 7.407 0 0 0 14.415 3.419Z" fill="#216EF4"/><path d="M409.889 167.026c-8.723 0-15.854-7.131-15.854-15.854 0-8.723 7.131-15.853 15.854-15.853 8.723 0 15.854 7.13 15.854 15.853 0 8.723-7.062 15.854-15.854 15.854Zm0-31.015c-8.377 0-15.162 6.785-15.162 15.161 0 8.377 6.785 15.162 15.162 15.162s15.161-6.785 15.161-15.162c0-8.376-6.784-15.161-15.161-15.161ZM310.75 70.38a2.77 2.77 0 1 0 0-5.538 2.77 2.77 0 0 0 0 5.539ZM46.43 184.611a10.223 10.223 0 0 1-10.246-10.246c0-5.677 4.569-10.247 10.246-10.247 5.676 0 10.246 4.57 10.246 10.247 0 5.607-4.639 10.246-10.246 10.246Zm0-19.108a8.834 8.834 0 0 0-8.862 8.862 8.834 8.834 0 0 0 8.862 8.861 8.834 8.834 0 0 0 8.861-8.861c0-4.916-4.015-8.862-8.861-8.862ZM132.827 64.843a4.166 4.166 0 0 1-4.154 4.153 4.166 4.166 0 0 1-4.153-4.153 4.166 4.166 0 0 1 4.153-4.154 4.166 4.166 0 0 1 4.154 4.154Z" fill="#216EF4"/><path d="m523.911 233.418-13.569 30.461-14.4 32.331-3.877 8.723-10.938 24.576-163.799 4.362 8.723-20.631 38.008-89.584c2.076-4.846 6.715-8.169 11.976-8.515 18.9-1.315 65.423-4.154 103.292-3.461 12.53.207 24.092.9 33.438 2.077 3.323.415 6.092 1.938 8.238 4.084 3.946 4.015 5.331 10.039 2.908 15.577Z" fill="#54238E"/><path d="m312.272 334.148-1.315-.485 8.723-22.223 38.007-90.484c2.216-5.192 6.993-8.653 12.531-9.069 18.415-1.315 65.423-4.223 103.361-3.461 13.5.277 24.784.969 33.507 2.077 3.323.415 6.3 1.938 8.585 4.361a14.942 14.942 0 0 1 2.907 16.477l-31.776 72.207-1.246-.554 31.776-72.207a13.718 13.718 0 0 0-2.631-14.954c-2.076-2.215-4.776-3.53-7.823-3.946-8.653-1.107-19.869-1.869-33.369-2.077-37.868-.761-84.806 2.216-103.222 3.462-5.054.346-9.415 3.531-11.353 8.169l-38.008 90.484-8.654 22.223Z" fill="#54238E"/><path d="M437.819 278.378c6.807-6.267 8.925-15.041 4.729-19.598-4.195-4.557-13.114-3.171-19.922 3.096-6.807 6.267-8.924 15.042-4.729 19.599 4.195 4.557 13.114 3.17 19.922-3.097Z" fill="#B29EEF"/><path d="M315.113 238.61c-3.254-6.438-7.546-12.323-10.177-19.107-.485-1.247-2.492-.693-2.008.553 2.631 6.923 6.993 13.016 10.385 19.593.623 1.246 2.423.138 1.8-1.039ZM286.657 302.302c4.362 9.692 19.039 11.284 28.108 10.246 1.315-.138 1.315-2.215 0-2.077-8.308.969-22.223-.208-26.308-9.208-.554-1.246-2.354-.207-1.8 1.039Z" fill="#fff"/><path d="M252.734 294.064c-1.108-18.9-2.908-37.731-5.331-56.492-1.938-15.231-3.807-30.462-7.546-45.346-1.869-7.408-4.154-14.746-7.13-21.808-2.77-6.715-7.339-14.053-4.5-21.53-7.408 5.331-12.323 7.546-20.839 10.869-6.854 2.7-13.984 4.638-20.769 7.477-3.946 1.661-7.823 3.6-11.007 6.438-3.67 3.185-6.3 7.269-8.793 11.423-2.838 4.708-5.538 9.416-7.823 14.4-3.669 7.962-6.369 16.338-9.415 24.508-5.469 14.676-12.184 28.869-19.523 42.645-4.638 8.723-9.623 17.585-10.938 27.346-1.316 9.762 2.007 20.977 10.592 25.823 3.946 2.216 8.515 2.977 13.015 3.254 32.885 2.423 64.038-2.077 101.146-6.854-.97.416 1.038-.138 0 0 1.107-.415 1.73-1.592 2.215-2.631 2.977-6.092 6.161-12.669 6.646-19.522Z" fill="#FDCB22"/><path d="M199.079 238.402c-5.054 12.739-9.277 25.754-12.531 39.046-.138.554.208 1.108.693 1.246 17.515 5.47 35.861 6.231 53.722 9.9 2.423.485 9.969 1.177 10.523 3.877.416 1.869-.415 4.5-.831 6.369-1.384 6.508-3.669 13.223-8.238 18.139-.9.969.554 2.423 1.454 1.454 4.708-5.123 7.2-11.977 8.654-18.693.761-3.6 2.63-8.861-1.593-10.73-4.5-2.008-10.246-2.562-15.092-3.393-5.261-.9-10.523-1.592-15.784-2.353-10.939-1.523-21.808-3.185-32.4-6.439.208.416.485.831.692 1.246 3.323-13.292 7.477-26.307 12.531-39.045.692-1.316-1.315-1.87-1.8-.624Z" fill="#fff"/><path d="M187.382 276.687a65.81 65.81 0 0 0-16.547 4.846c-1.246.554-.138 2.354 1.039 1.8 5.123-2.285 10.454-3.808 16.061-4.639 1.316-.207.762-2.215-.553-2.007Z" fill="#fff"/><path d="M259.105 169.934c-4.846 1.8-10.246 1.246-15.369.207-5.054-1.038-10.523-2.838-13.085-7.269-3.253-5.607-.623-12.6.9-18.9 2.008-8.03 2.077-16.546.208-24.645l19.108 3.669 6.507 1.246c-.138 8.377 1.939 16.754 6.092 23.954.416.692.831 1.384 1.177 2.076 1.523 2.562 2.977 5.123 3.116 8.031.415 5.262-3.739 9.9-8.654 11.631Z" fill="#FFB9A3"/><path d="M264.779 150.342c-17.931-1.316-24.715-13.777-27-19.731 1.454 1.177 3.116 2.146 4.916 2.908 4.915 2.007 10.661 1.8 15.438-.346a45.272 45.272 0 0 0 5.469 15.161c.346.623.762 1.315 1.177 2.008Z" fill="#FF9B8D"/><path d="M409.887 100.842c-21.946 0-39.739-17.861-39.739-39.738s17.862-39.738 39.739-39.738c21.945 0 39.738 17.861 39.738 39.738s-17.793 39.738-39.738 39.738Zm0-78.784c-21.531 0-39.046 17.515-39.046 39.046 0 21.53 17.515 39.046 39.046 39.046 21.53 0 39.045-17.516 39.045-39.046s-17.515-39.046-39.045-39.046Z" fill="#54238E"/><path d="m409.471 61.52 5.192-30.67.692.139-5.054 29.769c6.647-.83 16.339-2.146 16.962-2.492l.138.276h.07l.276-.276.07.346c-.07.277-.208.623-17.862 2.838l-.484.07Z" fill="#54238E"/><path d="M544.401 115.865c-1.593-4.777-3.6-9.554-7.269-12.946-6.993-6.438-18.623-5.746-26.446-.277-7.754 5.469-12.254 14.608-14.539 23.884-2.146 14.677-1.592 25.131 2.839 40.569 2.146 7.546 5.469 15.023 11.284 20.285 5.816 5.261 14.469 7.892 21.739 4.915 6.923-2.838 11.076-9.969 13.569-17.03 6.784-18.97 5.261-40.223-1.177-59.4Z" fill="#F7F9FB"/><path d="M192.575 233.695c1.177.969 2.077 2.215 3.185 3.254 1.107.969 2.353 1.661 3.6 2.423 1.177.623 2.215-1.108 1.038-1.8-1.246-.693-2.492-1.385-3.531-2.354-.969-.969-1.8-2.077-2.907-2.908-.97-.9-2.423.554-1.385 1.385ZM304.865 220.472a97.717 97.717 0 0 0 4.154-6.231c.692-1.107-1.108-2.146-1.8-1.038a162.006 162.006 0 0 1-4.154 6.23c-.762 1.108 1.038 2.147 1.8 1.039ZM225.873 102.434c.831 10.177 3.254 24.439 12.877 30.185 4.362 2.561 10.177 4.431 15.3 3.6 5.192-.831 8.931-4.708 12.115-8.585.623-.761-.484-1.869-1.107-1.107-2.977 3.669-6.439 7.338-11.285 8.099-4.985.831-11.008-1.176-15.161-4.015-8.17-5.538-10.385-19.107-11.146-28.177-.07-.969-1.662-.969-1.593 0ZM190.082 347.094h-30.461l-6.369-41.331h43.823l-6.993 41.331Z" fill="#fff"/><path d="M174.782 352.217c8.45 0 15.3-2.294 15.3-5.123 0-2.83-6.85-5.123-15.3-5.123-8.45 0-15.3 2.293-15.3 5.123 0 2.829 6.85 5.123 15.3 5.123ZM175.13 310.886c12.12 0 21.946-2.293 21.946-5.123 0-2.829-9.826-5.123-21.946-5.123-12.121 0-21.946 2.294-21.946 5.123 0 2.83 9.825 5.123 21.946 5.123Z" fill="#fff"/><path d="M175.127 309.986c10.056 0 18.208-1.89 18.208-4.223 0-2.332-8.152-4.223-18.208-4.223-10.055 0-18.207 1.891-18.207 4.223 0 2.333 8.152 4.223 18.207 4.223Z" fill="#400F58"/><path d="M156.09 310.194c-7.2 1.039-14.4 2.008-21.6 3.046-1.661.208-1.869 2.493-.9 3.462 4.916 5.192 9.9 10.384 14.816 15.577 4.292 4.43 8.653 8.723 14.053 11.838 2.285 1.315 4.431-2.215 2.077-3.6-5.4-3.115-9.761-7.546-14.053-12.046a2703.321 2703.321 0 0 1-13.985-14.677c-.277 1.177-.623 2.285-.9 3.462 7.2-1.039 14.4-2.008 21.6-3.047 2.631-.415 1.523-4.43-1.108-4.015ZM169.519 305.694c-.623-.831-1.246-1.661-1.8-2.561-.761-1.316-.969-1.523-.415-3.047.554-1.523 1.731-2.007 2.631-3.253.969-1.385 1.315-2.977.277-4.362-1.177-1.592-3.67-2.008-5.47-1.8-.415.069-.83.208-1.315.277-1.385.346-3.808.069-4.708-1.246-1.384-2.008 2.147-4.915 3.462-6.092.761-.693-.346-1.8-1.108-1.108-2.077 1.869-4.431 3.738-4.015 6.854.346 2.492 1.938 4.084 4.431 3.738 1.869-.207 9.83-2.631 7.269 2.562-.831 1.592-2.769 2.146-3.393 3.877-.9 2.561 1.662 5.469 3.116 7.269.554.761 1.661-.346 1.038-1.108Z" fill="#fff"/><path d="M176.443 302.994c-.831-.969-2.146-2.284-2.354-3.6-.346-2.769 1.593-2.838 2.839-4.015.623-.623 1.107-1.177 1.177-2.077.277-2.977-3.116-3.254-4.985-4.362-5.608-3.184-2.838-9.138-.208-13.153 1.8-2.769 3.393-5.4 3.185-8.862-.069-.969-1.592-.969-1.523 0 .484 7.546-10.523 13.431-4.708 21.185.969 1.315 2.146 2.007 3.6 2.63 1.939.831 3.046 2.147 1.316 4.154-.416.416-1.039.623-1.454 1.108-2.285 2.7.069 5.885 1.938 8.031.692.83 1.8-.277 1.177-1.039ZM182.812 304.171c-.553-1.246-1.384-2.631-.069-3.808.346-.346.9-.415 1.315-.623.831-.415 1.454-.9 1.731-1.8.623-1.869-.623-3.53-2.354-4.015-.969-.277-1.384 1.246-.415 1.523 1.246.346 1.869 1.869.692 2.839-.277.207-.969.415-1.315.623-.554.346-1.108.692-1.454 1.246-.969 1.592-.138 3.392.554 4.915.415.831 1.731 0 1.315-.9Z" fill="#fff"/></svg>