<svg width="132" height="169" viewBox="0 0 132 169" fill="none" xmlns="http://www.w3.org/2000/svg">
<path d="M65.6434 153.248C52.2725 153.248 41.5039 142.399 41.5039 129.128V114.064C41.5039 100.704 52.3622 89.9436 65.6434 89.9436C79.0144 89.9436 89.7829 100.793 89.7829 114.064V129.128C89.8726 142.488 79.0144 153.248 65.6434 153.248Z" fill="#0C2428"/>
<path d="M101.898 64.8369C101.898 44.0341 84.3989 27.3561 63.3104 28.7908C45.2731 29.9564 30.7356 44.5722 29.6587 62.5952C29.21 69.7686 30.8253 76.4936 34.0559 82.3219C38.1838 89.7643 40.2478 98.1033 40.2478 106.532C40.2478 120.61 51.6445 132.087 65.8231 132.087C79.912 132.087 91.3984 120.699 91.3984 106.532C91.3984 97.8343 93.8213 89.4953 97.8596 81.7839C100.372 76.7626 101.898 71.0239 101.898 64.8369Z" fill="#FCAF17"/>
<path d="M65.6434 89.9436C52.2725 89.9436 41.5039 100.793 41.5039 114.064V114.781C45.0037 124.914 54.5159 132.087 65.6434 132.087C76.8606 132.087 86.3729 124.914 89.7829 114.871V114.154C89.8726 100.793 79.0144 89.9436 65.6434 89.9436Z" fill="#F58220"/>
<path d="M65.6436 104.47C59.7208 104.47 54.875 109.312 54.875 115.23V129.756C58.1056 131.28 61.7848 132.177 65.6436 132.177C69.5023 132.177 73.1815 131.28 76.4121 129.756V115.23C76.4121 109.222 71.656 104.47 65.6436 104.47Z" fill="#FAA61A"/>
<path d="M72.1049 111.015C72.1049 112.719 69.2333 114.154 65.6438 114.154C62.0542 114.154 59.1826 112.809 59.1826 111.015C59.1826 109.312 62.0542 107.877 65.6438 107.877C69.2333 107.967 72.1049 109.312 72.1049 111.015Z" fill="#F58220"/>
<path d="M47.2471 131.19C49.67 132.804 51.9135 134.329 54.6056 135.405C58.1054 136.75 61.7846 137.646 65.6434 137.646C69.4124 137.646 73.0916 136.839 76.6811 135.405C79.3733 134.329 81.7065 132.715 84.0396 131.19C79.5527 136.75 72.8224 139.978 65.6434 139.978C58.4643 139.978 51.8237 136.66 47.2471 131.19Z" fill="#2A494E"/>
<path d="M47.2471 138.812C49.67 140.426 51.9135 141.95 54.6056 143.026C58.1054 144.371 61.7846 145.268 65.6434 145.268C69.4124 145.268 73.0916 144.461 76.6811 143.026C79.3733 141.95 81.7065 140.336 84.0396 138.812C79.5527 144.371 72.8224 147.599 65.6434 147.599C58.4643 147.599 51.8237 144.282 47.2471 138.812Z" fill="#2A494E"/>
<path d="M70.3996 111.553H68.0664V104.29C68.0664 91.6473 74.7967 79.6319 85.5653 72.9966L86.8216 74.9693C76.6812 81.1563 70.3996 92.4543 70.3996 104.29V111.553V111.553Z" fill="#FFF200"/>
<path d="M64.5667 111.553H62.2336V104.29C62.2336 92.4543 55.9519 81.1563 45.8115 74.9693L47.0678 72.9966C57.8364 79.6319 64.5667 91.6473 64.5667 104.29V111.553V111.553Z" fill="#FFF200"/>
<path d="M76.2327 72.3689L71.4766 64.8369L66.6307 72.3689L61.8746 64.8369L57.0288 72.3689L52.2726 64.8369L48.3242 71.0239L46.6191 69.9479L52.2726 61.0709L57.0288 68.5132L61.8746 61.0709L66.6307 68.5132L71.4766 61.0709L76.2327 68.5132L81.0785 61.0709L86.732 69.9479L85.027 71.0239L81.0785 64.8369L76.2327 72.3689Z" fill="#FFF200"/>
<path d="M82.8733 164.098C82.8733 166.34 75.6942 168.223 66.8102 168.223C57.9261 168.223 50.7471 166.34 50.7471 164.098C50.7471 161.857 57.9261 159.974 66.8102 159.974C75.6942 159.974 82.8733 161.857 82.8733 164.098Z" fill="#B6D1D3"/>
<path d="M33.6974 33.4535L19.6085 19.3757L18.8906 20.0931L32.9795 34.1708C33.2487 33.9018 33.4282 33.7225 33.6974 33.4535Z" fill="#FCAF17"/>
<path d="M97.0529 35.5158L112.398 20.1827L111.68 19.4654L96.335 34.7985C96.5144 34.9778 96.7836 35.2468 97.0529 35.5158Z" fill="#FCAF17"/>
<path d="M66.1824 21.1691V0.545685H65.1055V21.1691C65.4644 21.1691 65.8234 21.1691 66.1824 21.1691Z" fill="#FCAF17"/>
<path d="M19.9677 65.5542H0.0458984V66.6302H19.9677C19.9677 66.2716 19.9677 65.9129 19.9677 65.5542Z" fill="#FCAF17"/>
<path d="M33.5179 97.4756L18.8906 112.091L19.6085 112.809L34.2358 98.193C33.9666 97.924 33.7872 97.7446 33.5179 97.4756Z" fill="#FCAF17"/>
<path d="M108.809 65.5542C108.809 65.9129 108.809 66.2716 108.809 66.6302H131.243V65.5542H108.809Z" fill="#FCAF17"/>
<path d="M95.7959 96.9377L111.679 112.809L112.397 112.091L96.5138 96.2203C96.2446 96.3997 96.0651 96.6687 95.7959 96.9377Z" fill="#FCAF17"/>
</svg>
