<svg width="657" height="525" viewBox="0 0 657 525" fill="none" xmlns="http://www.w3.org/2000/svg">
<g clip-path="url(#clip0_161_3377)">
<path d="M493.947 322.307C494.775 320.59 497.2 320.176 498.915 321.005C500.63 321.834 501.694 323.61 502.463 325.327C503.646 328.17 504.119 331.012 504.533 334.032C505.361 331.308 506.307 328.584 507.372 325.92C508.022 324.143 508.791 322.426 509.501 320.649C505.657 318.755 502.404 315.735 500.275 312.004C499.447 310.583 498.796 308.866 499.506 307.385C500.334 305.668 502.759 305.254 504.474 306.083C506.189 306.912 507.254 308.629 508.022 310.405C509.264 313.366 509.738 316.268 510.092 319.406C512.458 314.077 515.238 308.925 518.431 304.069C515.001 301.582 512.34 298.089 510.802 294.18C510.211 292.641 509.856 290.805 510.802 289.502C511.867 287.963 514.351 287.904 515.888 288.969C517.426 290.035 518.254 291.93 518.668 293.766C519.378 296.727 519.437 299.628 519.318 302.648C522.749 297.556 526.77 292.641 531.856 289.147C531.975 289.088 532.093 289.029 532.152 288.91C529.077 285.949 526.889 282.1 525.942 277.896C525.587 276.297 525.469 274.462 526.593 273.277C527.894 271.915 530.319 272.212 531.679 273.514C533.039 274.817 533.571 276.771 533.749 278.666C534.104 281.982 533.571 285.061 532.98 288.318C538.953 284.469 545.695 281.686 551.491 277.659C548.298 274.699 546.05 270.79 545.104 266.527C544.749 264.928 544.631 263.092 545.755 261.908C547.056 260.546 549.48 260.842 550.841 262.145C552.201 263.448 552.733 265.402 552.911 267.297C553.266 270.731 552.733 273.87 552.083 277.186C553.502 276.12 554.921 275.054 556.223 273.751C558.825 271.205 560.895 268.185 562.432 264.81C558.47 262.796 555.158 259.48 553.147 255.572C552.378 254.151 551.846 252.375 552.615 250.953C553.502 249.295 555.927 248.94 557.583 249.828C559.239 250.717 560.244 252.493 560.954 254.269C562.196 257.526 562.492 260.724 562.728 264.218C565.094 258.77 565.981 252.611 565.567 246.808C562.255 244.558 559.535 241.361 557.938 237.63C557.287 236.15 556.814 234.314 557.701 232.952C558.707 231.353 561.131 231.176 562.787 232.182C564.384 233.189 565.271 235.025 565.863 236.86C566.75 239.762 566.927 242.604 566.986 245.565C567.045 245.683 567.105 245.742 567.105 245.92C567.578 250.835 567.045 255.809 565.685 260.546C565.389 261.612 565.035 262.619 564.68 263.685C567.341 260.783 570.771 258.651 574.556 257.526C576.094 257.053 577.987 256.875 579.229 257.882C580.707 259.066 580.53 261.553 579.347 262.974C578.164 264.454 576.212 265.106 574.32 265.402C570.83 265.994 567.578 265.639 564.088 265.224C563.201 267.356 562.078 269.369 560.717 271.205C558.647 273.988 556.163 276.297 553.384 278.251C557.169 276.771 561.309 276.416 565.33 277.186C566.927 277.482 568.642 278.133 569.293 279.613C570.062 281.331 568.82 283.462 567.045 284.232C565.33 285.002 563.26 284.706 561.486 284.114C557.997 282.989 555.217 281.153 552.201 279.081C547.588 282.219 542.384 284.647 537.534 287.371C535.996 288.2 534.518 289.147 533.098 290.094C537.12 288.318 541.674 287.726 545.991 288.614C547.588 288.91 549.303 289.562 549.954 291.042C550.722 292.759 549.48 294.891 547.706 295.661C545.991 296.43 543.921 296.134 542.147 295.542C538.598 294.417 535.76 292.463 532.684 290.391C531.147 291.456 529.727 292.582 528.367 293.884C525.942 296.253 523.754 298.918 521.743 301.641C521.211 302.352 520.679 303.122 520.206 303.892C523.695 301.938 527.657 300.931 531.679 301.049C533.276 301.108 535.109 301.464 535.996 302.826C537.002 304.425 536.115 306.734 534.518 307.741C532.921 308.747 530.851 308.747 529.018 308.451C525.528 307.918 522.571 306.556 519.437 305.076C516.302 309.813 513.641 314.906 511.334 320.116C514.351 317.215 518.195 315.261 522.275 314.491C523.872 314.195 525.706 314.136 526.889 315.32C528.249 316.682 527.835 319.11 526.534 320.413C525.173 321.774 523.222 322.189 521.329 322.367C517.722 322.604 514.469 321.952 510.98 321.182C510.684 321.893 510.388 322.544 510.092 323.255C508.496 327.045 507.076 330.953 505.834 334.92C508.791 332.137 512.517 330.242 516.539 329.472C518.136 329.176 519.969 329.117 521.152 330.301C522.512 331.663 522.098 334.091 520.797 335.394C519.437 336.756 517.485 337.17 515.593 337.348C512.103 337.585 508.91 336.934 505.539 336.223C504.237 340.783 503.173 345.401 502.522 350.079C502.404 351.027 500.866 350.79 501.044 349.783C501.694 345.046 502.759 340.368 504.06 335.808C500.216 333.914 496.904 330.834 494.775 327.104C493.947 325.564 493.296 323.788 493.947 322.307Z" fill="url(#paint0_linear_161_3377)"/>
<path d="M493.296 353.632L488.979 379.094C491.581 377.673 494.36 376.489 497.081 375.245C499.742 374.061 502.404 372.758 504.828 371.1C507.312 369.442 509.264 367.311 511.097 365.001C512.812 362.692 514.468 360.323 516.657 358.428C518.372 356.948 520.383 355.882 522.512 355.053C526.888 353.336 531.56 352.685 535.996 351.145C538.243 350.375 540.372 349.309 542.206 347.829C544.453 346.052 546.168 343.743 547.824 341.434C549.48 339.124 551.077 336.756 553.028 334.683C554.684 332.907 556.577 331.426 558.706 330.183C562.905 327.696 567.695 326.393 572.486 325.979C584.255 324.913 595.551 329.413 606.019 334.269C606.61 334.565 607.261 334.861 607.852 335.157C609.627 328.643 600.637 322.13 594.782 320.235C590.761 318.932 586.325 319.761 582.126 319.11C560.894 315.675 548.001 306.556 534.754 329.768C533.275 332.374 531.915 335.157 529.609 336.993C519.081 344.039 496.135 335.275 493.296 353.632Z" fill="url(#paint1_linear_161_3377)"/>
<path d="M502.996 407.932C519.437 416.518 539.013 403.787 530.319 382.884C523.813 371.87 534.695 366.955 544.04 365.889C548.653 365.357 554.153 365.83 557.051 362.159C562.373 353.691 552.083 340.605 572.013 338.532C583.25 337.348 602.294 349.605 607.616 335.867C607.616 335.808 607.676 335.749 607.676 335.69C597.74 331.012 587.272 326.393 576.153 326.393C571.245 326.393 566.277 327.222 561.782 329.235C559.594 330.183 557.524 331.486 555.631 332.966C553.561 334.683 551.846 336.756 550.309 338.887C548.653 341.197 547.115 343.565 545.222 345.697C543.566 347.592 541.674 349.132 539.427 350.316C535.405 352.388 530.91 353.158 526.593 354.343C524.405 354.935 522.216 355.645 520.206 356.711C517.899 357.955 516.007 359.672 514.351 361.685C512.517 363.876 510.98 366.304 509.028 368.376C507.135 370.39 504.829 371.989 502.404 373.291C498.028 375.719 493.296 377.318 488.979 379.746C488.861 379.746 484.484 398.28 502.996 407.932Z" fill="url(#paint2_linear_161_3377)"/>
<path d="M488.979 379.094L488.86 379.745C493.178 377.318 497.968 375.66 502.285 373.291C504.71 371.929 507.017 370.39 508.909 368.376C510.92 366.304 512.458 363.876 514.232 361.685C515.888 359.672 517.78 357.954 520.087 356.711C522.098 355.645 524.286 354.934 526.474 354.342C530.792 353.158 535.286 352.388 539.308 350.316C541.555 349.191 543.448 347.592 545.104 345.697C546.996 343.565 548.534 341.197 550.19 338.887C551.787 336.755 553.443 334.683 555.513 332.966C557.346 331.426 559.475 330.183 561.663 329.235C566.158 327.222 571.126 326.393 576.035 326.393C587.212 326.393 597.621 331.012 607.557 335.69C607.616 335.512 607.675 335.334 607.734 335.157C607.084 334.861 606.492 334.564 605.901 334.268C595.433 329.413 584.137 324.912 572.368 325.978C567.577 326.393 562.787 327.755 558.588 330.183C556.518 331.426 554.566 332.906 552.91 334.683C550.959 336.755 549.362 339.124 547.706 341.433C546.05 343.743 544.276 346.052 542.087 347.829C540.254 349.309 538.125 350.375 535.878 351.145C531.442 352.743 526.77 353.395 522.393 355.053C520.264 355.882 518.254 356.948 516.538 358.428C514.35 360.323 512.694 362.692 510.979 365.001C509.205 367.37 507.194 369.442 504.71 371.1C502.285 372.758 499.624 374.002 496.963 375.245C494.36 376.489 491.581 377.673 488.979 379.094Z" fill="white"/>
<path d="M163.052 189.547C162.224 187.83 159.799 187.415 158.084 188.244C156.369 189.073 155.304 190.85 154.535 192.567C153.353 195.41 152.88 198.252 152.466 201.272C151.638 198.548 150.691 195.824 149.627 193.159C148.976 191.383 148.207 189.666 147.498 187.889C151.342 185.994 154.595 182.974 156.724 179.244C157.552 177.823 158.202 176.105 157.493 174.625C156.665 172.908 154.24 172.493 152.525 173.322C150.81 174.151 149.745 175.869 148.976 177.645C147.734 180.606 147.261 183.507 146.906 186.646C144.541 181.316 141.761 176.165 138.567 171.309C141.998 168.822 144.659 165.328 146.197 161.42C146.788 159.88 147.143 158.045 146.197 156.742C145.132 155.203 142.648 155.143 141.11 156.209C139.573 157.275 138.745 159.17 138.331 161.006C137.621 163.966 137.562 166.868 137.68 169.888C134.25 164.795 130.228 159.88 125.142 156.387C125.024 156.328 124.906 156.268 124.847 156.15C127.922 153.189 130.11 149.34 131.056 145.136C131.411 143.537 131.53 141.701 130.406 140.517C129.105 139.155 126.68 139.451 125.32 140.754C123.959 142.057 123.427 144.011 123.25 145.906C122.895 149.222 123.427 152.301 124.019 155.558C118.045 151.709 111.303 148.926 105.507 144.899C108.701 141.938 110.948 138.03 111.895 133.767C112.25 132.168 112.368 130.332 111.244 129.148C109.943 127.786 107.518 128.082 106.158 129.385C104.798 130.688 104.265 132.642 104.088 134.536C103.733 137.971 104.265 141.109 104.916 144.425C103.497 143.36 102.077 142.294 100.776 140.991C98.1739 138.445 96.1039 135.425 94.5663 132.049C98.5287 130.036 101.841 126.72 103.851 122.812C104.62 121.391 105.153 119.614 104.384 118.193C103.497 116.535 101.072 116.18 99.4159 117.068C97.7599 117.956 96.7545 119.733 96.0448 121.509C94.8028 124.766 94.5071 127.964 94.2706 131.457C91.9049 126.01 91.0178 119.851 91.4318 114.048C94.7437 111.798 97.4642 108.6 99.061 104.87C99.7116 103.389 100.185 101.554 99.2976 100.192C98.2922 98.593 95.8674 98.4153 94.2114 99.422C92.6146 100.429 91.7275 102.264 91.1361 104.1C90.249 107.002 90.0715 109.844 90.0124 112.805C89.9533 112.923 89.8941 112.982 89.8941 113.16C89.421 118.075 89.9533 123.049 91.3135 127.786C91.6092 128.852 91.9641 129.859 92.3189 130.924C89.6576 128.023 86.2274 125.891 82.4423 124.766C80.9046 124.292 79.0121 124.115 77.7702 125.121C76.2916 126.306 76.4691 128.793 77.6519 130.214C78.8347 131.694 80.7864 132.346 82.6789 132.642C86.1682 133.234 89.421 132.878 92.9103 132.464C93.7974 134.596 94.9211 136.609 96.2814 138.445C98.3513 141.228 100.835 143.537 103.615 145.491C99.8298 144.011 95.69 143.656 91.6684 144.425C90.0715 144.721 88.3564 145.373 87.7059 146.853C86.9371 148.57 88.179 150.702 89.9533 151.472C91.6684 152.242 93.7383 151.946 95.5125 151.354C99.0019 150.228 101.782 148.393 104.798 146.32C109.411 149.459 114.615 151.886 119.465 154.61C121.002 155.439 122.481 156.387 123.9 157.334C119.879 155.558 115.325 154.966 111.008 155.854C109.411 156.15 107.696 156.801 107.045 158.282C106.276 159.999 107.518 162.131 109.292 162.9C111.008 163.67 113.077 163.374 114.852 162.782C118.4 161.657 121.239 159.703 124.314 157.63C125.852 158.696 127.271 159.821 128.632 161.124C131.056 163.493 133.245 166.157 135.255 168.881C135.788 169.592 136.32 170.362 136.793 171.131C133.304 169.177 129.341 168.171 125.32 168.289C123.723 168.348 121.89 168.704 121.002 170.065C119.997 171.664 120.884 173.974 122.481 174.98C124.078 175.987 126.148 175.987 127.981 175.691C131.47 175.158 134.427 173.796 137.562 172.316C140.696 177.053 143.358 182.145 145.664 187.356C142.648 184.455 138.804 182.501 134.723 181.731C133.126 181.435 131.293 181.376 130.11 182.56C128.75 183.922 129.164 186.35 130.465 187.652C131.825 189.014 133.777 189.429 135.669 189.606C139.277 189.843 142.53 189.192 146.019 188.422C146.315 189.133 146.611 189.784 146.906 190.495C148.503 194.284 149.922 198.193 151.164 202.16C148.207 199.377 144.481 197.482 140.46 196.712C138.863 196.416 137.03 196.357 135.847 197.541C134.487 198.903 134.901 201.331 136.202 202.634C137.562 203.996 139.514 204.41 141.406 204.588C144.895 204.825 148.089 204.173 151.46 203.463C152.761 208.022 153.826 212.641 154.476 217.319C154.595 218.266 156.132 218.03 155.955 217.023C155.304 212.286 154.24 207.608 152.939 203.048C156.783 201.153 160.095 198.074 162.224 194.344C163.111 192.804 163.762 191.028 163.052 189.547Z" fill="url(#paint3_linear_161_3377)"/>
<path d="M163.762 220.872L168.079 246.334C165.477 244.913 162.697 243.729 159.977 242.485C157.316 241.301 154.654 239.998 152.229 238.34C149.745 236.682 147.794 234.55 145.96 232.241C144.245 229.932 142.589 227.563 140.401 225.668C138.686 224.188 136.675 223.122 134.546 222.293C130.17 220.576 125.498 219.924 121.062 218.385C118.815 217.615 116.686 216.549 114.852 215.069C112.605 213.292 110.89 210.983 109.234 208.673C107.578 206.364 105.981 203.995 104.029 201.923C102.373 200.146 100.481 198.666 98.3517 197.423C94.1527 194.936 89.3623 193.633 84.5718 193.218C72.8027 192.152 61.5067 196.653 51.0387 201.508C50.4473 201.804 49.7968 202.101 49.2054 202.397C47.4311 195.883 56.4206 189.369 62.2756 187.474C66.2972 186.172 70.7328 187.001 74.9318 186.349C96.1635 182.915 109.056 173.796 122.304 197.008C123.782 199.614 125.143 202.397 127.449 204.232C137.976 211.279 160.923 202.515 163.762 220.872Z" fill="url(#paint4_linear_161_3377)"/>
<path d="M154.004 275.113C137.563 283.699 117.987 270.968 126.681 250.065C133.186 239.051 122.305 234.136 112.96 233.07C108.347 232.537 102.847 233.011 99.9491 229.339C94.6264 220.872 104.917 207.785 84.9864 205.713C73.7495 204.528 54.7061 216.786 49.3834 203.107C49.3834 203.048 49.3242 202.989 49.3242 202.93C59.2599 198.252 69.7279 193.633 80.8465 193.633C85.7552 193.633 90.7231 194.462 95.2178 196.475C97.406 197.423 99.476 198.725 101.369 200.206C103.438 201.923 105.154 203.995 106.691 206.127C108.347 208.437 109.885 210.805 111.777 212.937C113.433 214.832 115.326 216.371 117.573 217.556C121.595 219.628 126.09 220.398 130.407 221.582C132.595 222.174 134.783 222.885 136.794 223.951C139.101 225.194 140.993 226.912 142.649 228.925C144.482 231.116 146.02 233.544 147.972 235.616C149.864 237.63 152.171 239.228 154.596 240.531C158.972 242.959 163.703 244.558 168.021 246.986C168.139 246.986 172.575 265.52 154.004 275.113Z" fill="url(#paint5_linear_161_3377)"/>
<path d="M168.08 246.334L168.198 246.985C163.881 244.557 159.09 242.899 154.773 240.531C152.348 239.169 150.042 237.629 148.149 235.616C146.138 233.543 144.601 231.116 142.827 228.925C141.171 226.911 139.278 225.194 136.972 223.951C134.961 222.885 132.772 222.174 130.584 221.582C126.267 220.398 121.772 219.628 117.751 217.555C115.503 216.43 113.611 214.832 111.955 212.937C110.062 210.805 108.525 208.436 106.869 206.127C105.272 203.995 103.616 201.923 101.546 200.205C99.7125 198.666 97.5835 197.422 95.3952 196.475C90.9005 194.462 85.9326 193.633 81.0239 193.633C69.8462 193.633 59.4374 198.251 49.5016 202.929C49.4425 202.752 49.3834 202.574 49.3242 202.396C49.9748 202.1 50.5662 201.804 51.1576 201.508C61.6256 196.653 72.9216 192.152 84.6907 193.218C89.4811 193.633 94.2716 194.995 98.4706 197.422C100.541 198.666 102.492 200.146 104.148 201.923C106.1 203.995 107.697 206.364 109.353 208.673C111.009 210.983 112.783 213.292 114.971 215.068C116.804 216.549 118.933 217.615 121.181 218.384C125.616 219.983 130.289 220.635 134.665 222.293C136.794 223.122 138.805 224.187 140.52 225.668C142.708 227.563 144.364 229.931 146.079 232.241C147.854 234.609 149.864 236.682 152.348 238.34C154.773 239.998 157.434 241.241 160.096 242.485C162.639 243.728 165.418 244.913 168.08 246.334Z" fill="white"/>
<path d="M465.323 426.526C466.861 435.467 467.984 443.461 468.221 450.804C468.635 463.95 468.221 480.352 465.915 502.38L456.866 501.847C456.866 501.847 449 464.364 444.801 438.783C443.737 432.27 442.909 426.466 442.495 422.144C440.188 397.333 452.489 329.058 453.317 324.617L453.377 324.439V324.38L482.415 322.011C496.609 372.285 478.098 382.647 465.323 426.526Z" fill="#F1CCCD"/>
<path d="M517.485 497.406C516.657 493.498 503.824 465.904 491.995 448.85C489.156 444.764 486.673 441.093 484.307 438.606C468.339 422.025 455.269 329.235 455.269 329.235L485.135 322.011C505.479 343.269 494.716 371.87 497.791 402.78C498.856 413.498 502.227 423.683 507.313 432.329C508.318 434.105 509.324 435.882 510.211 437.658C516.657 450.389 520.62 469.93 525.173 494.149C525.173 494.208 517.485 497.406 517.485 497.406Z" fill="#F1CCCD"/>
<path d="M430.43 410.419C430.43 412.077 431.849 413.38 433.505 413.202C461.715 409.59 479.694 419.005 502.109 415.393C503.41 415.216 504.711 414.92 506.012 414.623C508.378 414.091 510.093 412.018 510.27 409.649C512.695 373.232 510.803 340.427 500.808 319.406H448.349C448.349 319.406 431.021 378.384 430.43 410.419Z" fill="url(#paint6_linear_161_3377)"/>
<path d="M502.226 380.456C502.226 398.458 502.108 409.412 502.108 415.452C503.409 415.275 504.71 414.979 506.012 414.683C508.377 414.15 510.092 412.077 510.27 409.708C512.694 373.291 510.802 340.486 500.807 319.465H498.323L495.484 322.248C495.484 322.189 502.286 349.901 502.226 380.456Z" fill="#E6E6E6"/>
<path d="M460.532 201.982C460.532 198.666 461.538 195.173 463.962 192.863C466.979 190.08 471.769 189.607 475.791 190.199C479.871 190.791 484.307 192.33 487.619 194.758C492.823 198.548 497.081 204.884 498.619 211.161C500.393 218.444 496.194 226.379 498.737 233.366C500.512 238.4 505.302 241.656 509.146 245.387C512.991 249.118 516.243 254.802 513.996 259.658C511.394 265.165 506.367 264.395 503.35 269.724C501.458 273.1 501.103 279.554 499.625 283.107C498.087 286.778 493.001 289.265 488.151 288.555C484.248 287.963 480.522 285.535 479.339 281.745C478.57 279.199 478.807 276.475 477.979 273.929C476.678 270.08 473.129 267.533 470.409 264.513C463.844 257.289 462.011 246.157 467.038 237.215C462.898 229.577 461.005 221.346 463.667 211.812C461.478 208.555 460.532 205.298 460.532 201.982Z" fill="url(#paint7_linear_161_3377)"/>
<path d="M423.568 257.704L410.617 262.382L401.509 236.86L414.461 232.241L423.568 257.704Z" fill="url(#paint8_linear_161_3377)"/>
<path d="M446.989 286.305C446.989 286.305 445.984 307.326 434.983 308.214C425.757 308.984 415.23 273.633 407.956 264.336C400.977 255.394 397.015 248.111 401.746 245.269C414.284 237.748 414.994 250.539 415.467 260.368L430.193 283.107L449.591 245.802L446.989 286.305Z" fill="#F1CCCD"/>
<path d="M536.115 367.429C530.496 368.85 524.701 360.027 524.701 360.027C524.701 360.027 522.394 365.771 520.679 363.166C518.905 360.56 521.743 353.514 521.743 353.514L520.147 348.184L502.109 288.851L495.544 240.887C506.958 245.742 525.351 323.196 528.308 345.993C528.84 350.198 529.136 352.625 529.136 352.625C529.136 352.625 542.147 365.89 536.115 367.429Z" fill="#F1CCCD"/>
<path d="M407.66 264.928C411.682 276.356 425.994 308.688 435.161 308.688C435.693 308.688 436.226 308.569 436.758 308.332C440.543 306.734 444.21 299.924 446.93 293.351C449.592 286.897 451.425 280.738 451.602 279.909V279.85C452.608 289.976 448.705 320.768 447.522 320.353C460.533 324.853 476.619 325.801 492.232 322.959H492.351C495.663 322.366 498.975 321.597 502.227 320.649C493.711 308.214 491.109 286.423 495.485 279.021C495.544 279.317 495.603 279.732 495.663 280.146C498.028 292.285 519.674 353.158 519.851 353.158C522.217 352.625 530.142 350.908 530.142 350.73C527.008 327.577 506.84 246.394 496.964 238.992C488.447 232.656 478.985 231.175 478.867 231.175L468.339 231.353C468.28 231.353 451.366 237.215 446.694 247.223C442.495 256.164 430.548 282.515 430.548 282.515C430.43 282.811 430.016 282.87 429.838 282.574L415.999 258.71C415.881 258.473 407.601 264.809 407.66 264.928Z" fill="url(#paint9_linear_161_3377)"/>
<path d="M478.866 231.176C478.57 231.649 478.275 232.064 477.979 232.419C475.081 236.09 471.946 236.268 468.339 231.353C468.575 230.228 469.167 226.32 469.581 223.833C469.758 222.886 469.877 222.116 469.936 221.82L477.742 221.228L478.866 231.176Z" fill="#F1CCCD"/>
<path d="M478.866 231.176C478.571 231.649 478.275 232.064 477.979 232.419C477.743 230.228 476.915 226.142 474.549 226.142C471.414 226.083 469.758 224.07 469.581 223.892C469.758 222.945 469.877 222.175 469.936 221.879L477.743 221.287L478.866 231.176Z" fill="#F1BABB"/>
<path d="M495.662 280.146L495.484 279.021C495.544 279.317 495.603 279.732 495.662 280.146Z" fill="#DB85B4"/>
<path d="M495.485 322.189L502.227 320.59C493.711 308.155 491.108 286.423 495.485 279.08L493.237 272.448C488.033 282.633 484.839 297.792 495.485 322.189Z" fill="#E6E6E6"/>
<path d="M436.758 308.333C440.543 306.734 444.21 299.924 446.93 293.351L451.602 279.909V279.85C449.591 271.738 450.005 267.711 451.011 260.901C446.043 269.547 447.699 299.51 436.758 308.333Z" fill="#E6E6E6"/>
<path d="M466.032 501.61L468.221 508.894L466.683 521.211L464.258 521.329L462.07 510.552L458.108 517.717C457.043 519.612 455.446 521.211 453.258 521.507C447.521 522.217 436.284 522.395 435.87 518.664C435.397 514.815 446.279 514.638 449.473 510.374C452.548 506.229 456.866 501.374 456.866 501.374L466.032 501.61Z" fill="url(#paint10_linear_161_3377)"/>
<path d="M524.168 489.59L530.26 494.09L536.351 504.867L534.459 506.407L526.238 499.064L527.362 507.177C527.658 509.368 527.303 511.559 525.765 513.098C521.625 517.125 512.695 523.994 510.093 521.211C507.372 518.368 514.765 511.618 516.066 506.466C517.367 501.137 516.657 494.86 516.657 494.86L524.168 489.59Z" fill="url(#paint11_linear_161_3377)"/>
<path d="M466.388 221.76C477.092 230.879 483.125 214.358 483.125 214.358C483.125 214.358 487.856 212.167 486.022 207.845C484.366 203.996 480.227 208.733 480.227 208.733C474.608 208.733 470.113 203.818 467.748 200.561C466.92 199.436 465.146 199.673 464.732 200.976C463.667 204.233 462.366 209.325 462.78 214.003C463.076 217.023 464.081 219.806 466.388 221.76Z" fill="#F1CCCD"/>
<path d="M387.789 114.344V496.044C387.789 503.801 381.461 510.137 373.714 510.137H173.58C165.832 510.137 159.504 503.801 159.504 496.044V114.344C159.504 106.587 165.832 100.251 173.58 100.251H373.714C381.461 100.251 387.789 106.528 387.789 114.344Z" fill="white"/>
<path d="M383.353 88.7041H163.644C155.541 88.7041 148.977 95.4546 148.977 103.804V505.933C148.977 514.282 155.541 521.033 163.644 521.033H383.353C391.456 521.033 398.02 514.282 398.02 505.933V103.804C398.079 95.4546 391.515 88.7041 383.353 88.7041ZM387.789 496.044C387.789 503.801 381.461 510.137 373.713 510.137H173.579C165.832 510.137 159.504 503.801 159.504 496.044V114.344C159.504 106.528 165.832 100.251 173.579 100.251H252.769C253.775 100.251 254.603 101.08 254.662 102.087C255.076 112.035 263.474 120.147 273.646 120.147C283.759 120.147 292.157 112.035 292.571 102.087C292.631 101.08 293.459 100.251 294.464 100.251H373.654C381.461 100.251 387.73 106.587 387.73 114.344V496.044H387.789Z" fill="url(#paint12_linear_161_3377)"/>
<path d="M279.567 105.379C280.34 102.101 278.313 98.816 275.039 98.0419C271.764 97.2678 268.483 99.2978 267.71 102.576C266.937 105.854 268.965 109.139 272.239 109.913C275.513 110.687 278.794 108.657 279.567 105.379Z" fill="white"/>
<path d="M269.093 103.981C269.093 101.494 271.104 99.481 273.588 99.481C276.071 99.481 278.082 101.494 278.082 103.981C278.082 106.468 276.071 108.482 273.588 108.482C271.104 108.482 269.093 106.468 269.093 103.981Z" fill="url(#paint13_linear_161_3377)"/>
<path d="M271.222 101.968C271.222 101.258 271.813 100.666 272.523 100.666C273.232 100.666 273.824 101.258 273.824 101.968C273.824 102.679 273.232 103.271 272.523 103.271C271.813 103.271 271.222 102.679 271.222 101.968Z" fill="white"/>
<path d="M352.068 162.19H195.166C185.881 162.19 178.37 169.71 178.37 179.007V257.348C178.37 266.645 185.881 274.165 195.166 274.165H352.068C361.353 274.165 368.864 266.645 368.864 257.348V179.007C368.864 169.71 361.353 162.19 352.068 162.19Z" fill="url(#paint14_linear_161_3377)"/>
<path d="M366.262 283.699H180.972C179.553 283.699 178.37 284.884 178.37 286.305C178.37 287.726 179.553 288.91 180.972 288.91H366.321C367.74 288.91 368.923 287.726 368.923 286.305C368.864 284.884 367.74 283.699 366.262 283.699Z" fill="#C7E2FF"/>
<path d="M180.972 301.878H262.292C263.711 301.878 264.894 300.694 264.894 299.272C264.894 297.851 263.711 296.667 262.292 296.667H180.972C179.553 296.667 178.37 297.851 178.37 299.272C178.37 300.753 179.553 301.878 180.972 301.878Z" fill="#C7E2FF"/>
<path d="M366.261 342.736H250.463C249.043 342.736 247.86 343.921 247.86 345.342C247.86 346.763 249.043 347.947 250.463 347.947H366.32C367.74 347.947 368.922 346.763 368.922 345.342C368.863 343.861 367.74 342.736 366.261 342.736Z" fill="#C7E2FF"/>
<path d="M300.26 360.915C301.679 360.915 302.862 359.731 302.862 358.31C302.862 356.889 301.679 355.705 300.26 355.705H250.463C249.043 355.705 247.86 356.889 247.86 358.31C247.86 359.731 249.043 360.915 250.463 360.915H300.26Z" fill="#C7E2FF"/>
<path d="M366.261 454.001H250.463C249.043 454.001 247.86 455.186 247.86 456.607C247.86 458.028 249.043 459.212 250.463 459.212H366.32C367.74 459.212 368.922 458.028 368.922 456.607C368.863 455.127 367.74 454.001 366.261 454.001Z" fill="#C7E2FF"/>
<path d="M300.26 467.029H250.463C249.043 467.029 247.86 468.213 247.86 469.634C247.86 471.055 249.043 472.24 250.463 472.24H300.26C301.679 472.24 302.862 471.055 302.862 469.634C302.803 468.154 301.679 467.029 300.26 467.029Z" fill="#C7E2FF"/>
<path d="M248.274 400.057C248.274 398.635 249.457 397.451 250.877 397.451H366.675C368.095 397.451 369.277 398.635 369.277 400.057C369.277 401.478 368.095 402.662 366.675 402.662H250.817C249.398 402.662 248.274 401.478 248.274 400.057Z" fill="#C7E2FF"/>
<path d="M248.274 413.084C248.274 411.663 249.457 410.479 250.877 410.479H300.674C302.093 410.479 303.276 411.663 303.276 413.084C303.276 414.505 302.093 415.689 300.674 415.689H250.877C249.398 415.689 248.274 414.505 248.274 413.084Z" fill="#C7E2FF"/>
<path d="M267.969 231.175C266.195 232.063 264.125 230.761 264.066 228.747L263.947 218.918L263.829 209.088C263.829 207.134 265.84 205.772 267.673 206.601L278.792 211.693L288.609 216.194C290.679 217.141 290.679 220.102 288.668 221.109L278.969 225.846L267.969 231.175Z" fill="white"/>
<path d="M273.646 242.485C260.28 242.485 249.398 231.59 249.398 218.207C249.398 204.825 260.28 193.929 273.646 193.929C287.012 193.929 297.894 204.825 297.894 218.207C297.894 231.59 287.012 242.485 273.646 242.485ZM273.646 195.587C261.227 195.587 251.114 205.713 251.114 218.148C251.114 230.583 261.227 240.709 273.646 240.709C286.066 240.709 296.179 230.583 296.179 218.148C296.179 205.713 286.066 195.587 273.646 195.587Z" fill="white"/>
<path d="M223.318 330.538H190.849C186.295 330.538 182.569 334.269 182.569 338.828V364.883C182.569 369.442 186.295 373.173 190.849 373.173H223.318C227.872 373.173 231.597 369.442 231.597 364.883V338.828C231.597 334.209 227.872 330.538 223.318 330.538Z" fill="#C7E2FF"/>
<path d="M203.446 360.205C202.322 360.738 200.962 359.909 200.962 358.665L200.903 352.329L200.844 345.993C200.844 344.69 202.145 343.861 203.328 344.394L210.484 347.71L216.812 350.612C218.172 351.204 218.172 353.099 216.871 353.75L210.602 356.77L203.446 360.205Z" fill="white"/>
<path d="M207.053 367.488C198.419 367.488 191.381 360.442 191.381 351.796C191.381 343.151 198.419 336.104 207.053 336.104C215.688 336.104 222.726 343.151 222.726 351.796C222.726 360.501 215.747 367.488 207.053 367.488ZM207.053 337.23C199.01 337.23 192.505 343.802 192.505 351.796C192.505 359.85 199.069 366.363 207.053 366.363C215.097 366.363 221.602 359.79 221.602 351.796C221.661 343.743 215.097 337.23 207.053 337.23Z" fill="white"/>
<path d="M223.318 441.803H190.849C186.295 441.803 182.569 445.534 182.569 450.093V476.148C182.569 480.707 186.295 484.438 190.849 484.438H223.318C227.872 484.438 231.597 480.707 231.597 476.148V450.093C231.597 445.475 227.872 441.803 223.318 441.803Z" fill="#C7E2FF"/>
<path d="M203.446 471.47C202.322 472.003 200.962 471.174 200.962 469.93L200.903 463.594L200.844 457.258C200.844 455.955 202.145 455.126 203.328 455.659L210.484 458.975L216.812 461.877C218.172 462.469 218.172 464.364 216.871 465.015L210.602 468.035L203.446 471.47Z" fill="white"/>
<path d="M207.053 478.813C198.419 478.813 191.381 471.766 191.381 463.121C191.381 454.475 198.419 447.429 207.053 447.429C215.688 447.429 222.726 454.475 222.726 463.121C222.726 471.766 215.747 478.813 207.053 478.813ZM207.053 448.495C199.01 448.495 192.505 455.067 192.505 463.061C192.505 471.115 199.069 477.628 207.053 477.628C215.097 477.628 221.602 471.056 221.602 463.061C221.661 455.008 215.097 448.495 207.053 448.495Z" fill="white"/>
<path d="M190.849 385.312H223.318C227.872 385.312 231.597 389.043 231.597 393.602V419.657C231.597 424.216 227.872 427.947 223.318 427.947H190.849C186.295 427.947 182.569 424.216 182.569 419.657V393.602C182.569 388.983 186.295 385.312 190.849 385.312Z" fill="#C7E2FF"/>
<path d="M203.446 414.979C202.322 415.512 200.962 414.683 200.962 413.439L200.903 407.103L200.844 400.767C200.844 399.464 202.145 398.635 203.328 399.168L210.484 402.484L216.812 405.386C218.172 405.978 218.172 407.873 216.871 408.524L210.543 411.544L203.446 414.979Z" fill="white"/>
<path d="M207.113 422.262C198.478 422.262 191.44 415.216 191.44 406.57C191.44 397.925 198.478 390.878 207.113 390.878C215.747 390.878 222.785 397.925 222.785 406.57C222.785 415.216 215.747 422.262 207.113 422.262ZM207.113 392.004C199.07 392.004 192.564 398.576 192.564 406.57C192.564 414.624 199.129 421.137 207.113 421.137C215.156 421.137 221.662 414.564 221.662 406.57C221.662 398.517 215.097 392.004 207.113 392.004Z" fill="white"/>
<path d="M330.422 135.484H191.263C188.247 135.484 185.763 137.971 185.763 140.991C185.763 144.011 188.247 146.498 191.263 146.498H330.422C333.438 146.498 335.922 144.011 335.922 140.991C335.922 137.971 333.438 135.484 330.422 135.484Z" fill="#C7E2FF"/>
<path d="M355.971 146.498H346.213C343.197 146.498 340.713 144.011 340.713 140.991C340.713 137.971 343.197 135.484 346.213 135.484H355.971C358.988 135.484 361.471 137.971 361.471 140.991C361.471 144.011 358.988 146.498 355.971 146.498Z" fill="#C7E2FF"/>
<path d="M355.557 144.188L352.719 142.175C352.659 142.175 352.659 142.116 352.6 142.116C352.896 141.583 353.014 140.991 353.014 140.399C353.014 138.326 351.358 136.668 349.288 136.668C347.218 136.668 345.562 138.326 345.562 140.399C345.562 142.471 347.218 144.129 349.288 144.129C350.235 144.129 351.063 143.774 351.713 143.182C351.772 143.241 351.772 143.3 351.831 143.3L354.67 145.313C354.848 145.432 355.025 145.491 355.202 145.432C355.38 145.373 355.557 145.313 355.676 145.136C355.971 144.899 355.912 144.425 355.557 144.188ZM349.288 143.063C347.81 143.063 346.627 141.879 346.627 140.399C346.627 138.918 347.81 137.734 349.288 137.734C350.767 137.734 351.95 138.918 351.95 140.399C351.95 141.879 350.767 143.063 349.288 143.063Z" fill="white"/>
<path d="M131.233 508.538C128.099 495.156 126.088 456.666 133.244 430.907C139.454 408.583 133.363 395.497 133.303 395.378L134.605 394.727C134.841 395.26 140.992 408.406 134.664 431.322C127.567 456.844 129.637 494.978 132.712 508.242L131.233 508.538Z" fill="#0D3F75"/>
<path d="M138.567 509.604C137.562 509.249 132.653 505.637 134.664 468.805C136.675 431.677 117.395 425.697 117.158 425.637L117.572 424.216C118.4 424.453 138.153 430.612 136.143 468.864C134.25 504.867 139.1 508.183 139.159 508.183L138.567 509.604Z" fill="#0D3F75"/>
<path d="M136.024 507.532C134.959 502.854 136.97 492.669 139.04 481.832C140.46 474.549 141.938 467.029 142.234 461.936C142.529 456.725 141.701 450.508 140.933 444.527C139.809 436.118 138.804 428.184 140.519 422.558C141.642 419.005 144.185 416.4 147.556 415.334C151.223 414.209 155.304 415.038 158.498 417.525L157.61 418.709C154.772 416.459 151.164 415.748 147.97 416.755C145.013 417.703 142.825 419.894 141.879 423.032C140.223 428.361 141.228 436.118 142.352 444.409C143.121 450.508 143.949 456.784 143.653 462.114C143.357 467.325 141.879 474.904 140.4 482.247C138.39 492.432 136.32 502.972 137.325 507.354L136.024 507.532Z" fill="#0D3F75"/>
<path d="M93.738 442.395C97.9962 440.619 102.905 432.329 107.577 432.506C108.642 437.776 100.835 438.013 97.8779 441.152C95.4531 444.408 106.986 446.185 111.954 442.869C116.153 440.323 114.378 434.342 118.814 425.341C122.54 417.584 125.319 417.347 125.615 412.728C126.147 404.261 117.395 396.563 116.448 397.155C116.093 397.392 117.158 398.813 117.631 402.662C117.986 402.958 117.986 417.939 114.083 413.024C111.362 406.807 118.4 402.188 113.669 395.142C110.12 389.871 100.953 390.049 100.776 390.7C105.389 391.766 108.405 403.668 106.394 408.465C104.975 411.248 103.792 408.939 103.378 406.096C100.776 397.036 100.066 392.122 93.3832 388.509C85.2217 384.128 78.8344 391.885 68.5438 393.72C68.5438 393.72 66.1782 406.333 71.3235 413.261C76.2322 419.953 82.9743 413.557 88.4153 415.097C90.8401 415.571 91.4315 418.591 89.953 420.13C87.883 423.209 83.0335 423.506 79.5441 423.683C73.7483 423.979 71.6783 422.795 71.0278 423.861C69.1944 426.644 78.3021 434.283 83.2109 432.506C89.4207 432.921 96.2219 422.38 102.491 425.045C102.668 429.96 90.4261 435.585 85.1625 436C82.3829 435.881 80.4312 434.638 80.1947 435.112C81.4958 437.776 89.8347 443.698 93.738 442.395Z" fill="url(#paint15_linear_161_3377)"/>
<path d="M104.147 441.329C105.566 441.151 106.927 440.619 108.109 439.79C109.233 438.961 110.12 437.954 110.83 436.71C111.599 435.408 112.072 433.986 112.663 432.565C113.255 431.026 113.964 429.545 114.733 428.124C115.088 427.473 115.443 426.821 115.857 426.17C116.212 425.637 116.685 425.163 117.335 425.104C117.454 425.163 117.513 425.223 117.631 425.282C117.986 425.46 118.282 425.696 118.577 425.874C118.577 425.815 118.637 425.756 118.637 425.756C118.045 425.341 117.454 424.986 116.862 424.69C116.626 424.512 116.448 424.216 116.33 423.979C116.212 423.742 116.034 423.446 116.034 423.15C116.034 422.736 116.212 422.262 116.389 421.907C116.567 421.492 116.744 421.137 116.921 420.722C118.163 417.939 119.819 415.393 120.766 412.491C121.535 410.123 121.771 407.458 120.825 405.09C120.766 404.971 120.647 405.09 120.707 405.149C121.239 406.511 121.357 408.05 121.239 409.531C120.943 412.432 119.642 415.038 118.341 417.584C117.631 419.005 116.862 420.426 116.271 421.847C116.034 422.38 115.798 423.032 116.034 423.624C116.153 423.92 116.33 424.275 116.567 424.571C114.792 423.683 112.9 423.15 111.067 422.558C111.007 422.558 110.889 422.499 110.83 422.499C109.825 421.433 109.233 420.13 108.937 418.709C108.287 415.867 108.937 413.024 109.647 410.241C109.825 409.471 110.061 408.702 110.239 407.991C110.416 407.281 110.593 406.57 110.653 405.8C110.771 404.557 110.593 403.195 109.647 402.247C109.588 402.188 109.47 402.306 109.529 402.366C110.712 403.491 110.653 405.267 110.357 406.748C109.765 409.708 108.583 412.61 108.464 415.689C108.405 418.058 108.937 420.545 110.534 422.38C108.76 421.847 107.045 421.255 105.389 420.426C104.502 419.953 103.674 419.42 102.846 418.768C102.136 418.235 101.426 417.584 100.776 416.992C99.6522 415.926 98.6468 414.86 97.5232 413.794C96.8726 412.314 96.5769 410.715 96.4586 409.175C96.1629 406.333 96.3995 403.432 95.4532 400.708C94.6252 398.28 92.6144 395.97 89.8939 395.852C89.7757 395.852 89.7757 396.03 89.8939 396.03C91.4316 396.089 92.7919 396.918 93.7381 397.984C95.6306 400.175 95.9855 403.135 96.1038 405.919C96.2221 408.465 96.2812 411.13 97.2274 413.557C97.1092 413.439 96.9317 413.261 96.8135 413.143C95.3941 411.84 93.8564 410.656 92.1413 409.708C88.7111 407.695 84.9261 406.452 81.2002 405.149C81.0819 405.09 81.0227 405.267 81.141 405.326C81.6142 405.504 82.0873 405.623 82.5013 405.8C86.1089 407.044 89.7165 408.346 92.9693 410.419C91.9639 410.241 90.8993 410.478 89.8939 410.656C88.652 410.952 87.1734 411.189 86.1089 410.36C86.0498 410.301 85.9315 410.419 85.9906 410.478C86.996 411.248 88.4154 411.07 89.5982 410.833C90.8402 410.597 92.2004 410.182 93.3833 410.597C94.9801 411.662 96.3995 412.906 97.7597 414.268C99.0608 415.571 100.362 416.873 101.722 418.058C101.84 418.176 102.018 418.295 102.136 418.413C100.776 417.88 99.1791 418.176 97.8189 418.709C96.2812 419.36 94.9801 420.485 93.7381 421.611C92.4962 422.676 91.195 423.683 89.7757 424.512C86.996 426.111 83.8615 426.999 80.6679 427.236C80.5496 427.236 80.6088 427.414 80.6679 427.414C82.383 427.295 84.0981 426.999 85.7541 426.466C87.2326 425.992 88.652 425.341 90.0122 424.571C91.3725 423.742 92.6144 422.736 93.8564 421.729C95.0984 420.604 96.3995 419.479 97.9963 418.887C99.4748 418.295 101.249 418.117 102.609 418.887C103.792 419.775 105.034 420.545 106.394 421.137C108.228 421.966 110.179 422.499 112.131 423.091C112.308 423.15 112.486 423.209 112.604 423.269C111.48 423.446 110.475 423.92 109.588 424.571C108.642 425.282 107.814 426.17 107.045 427.058C106.217 428.006 105.389 428.894 104.502 429.723C102.728 431.322 100.776 432.743 98.6468 433.809C98.5286 433.868 98.6468 433.986 98.706 433.927C99.8888 433.335 101.012 432.625 102.077 431.855C103.023 431.144 103.91 430.434 104.798 429.605C105.685 428.776 106.453 427.887 107.281 426.999C108.109 426.111 108.878 425.223 109.884 424.512C110.83 423.861 111.894 423.387 113.018 423.328C114.438 423.802 115.857 424.334 117.217 425.045C116.685 425.163 116.212 425.578 115.916 426.052C115.443 426.703 115.029 427.473 114.674 428.183C113.905 429.605 113.255 431.026 112.663 432.565C112.072 433.986 111.599 435.467 110.771 436.829C110.061 438.072 109.115 439.079 107.932 439.908C106.808 440.619 105.566 441.092 104.265 441.27C104.029 441.211 104.029 441.388 104.147 441.329Z" fill="white"/>
<path d="M186.294 407.814C181.74 408.524 174.998 415.393 170.504 414.09C170.74 408.702 178.369 410.36 181.977 407.991C185.111 405.445 174.348 400.945 168.67 402.958C163.998 404.438 164.294 410.656 157.788 418.354C152.347 424.986 149.568 424.572 148.148 428.953C145.605 437.066 152.288 446.599 153.353 446.303C153.767 446.185 153.057 444.527 153.53 440.678C153.293 440.323 156.842 425.756 159.444 431.44C160.627 438.132 152.643 440.915 155.6 448.909C157.788 454.89 166.719 456.903 167.073 456.311C162.815 454.179 162.756 441.921 165.831 437.717C167.901 435.349 168.434 437.895 168.197 440.737C168.552 450.152 168.079 455.126 173.697 460.16C180.558 466.377 188.601 460.337 199.069 461.048C199.069 461.048 204.332 449.383 201.02 441.389C197.827 433.75 189.784 438.309 184.875 435.526C182.628 434.52 182.746 431.381 184.579 430.256C187.3 427.769 192.09 428.657 195.52 429.309C201.198 430.375 202.972 432.092 203.859 431.204C206.284 428.894 199.246 419.301 194.101 419.894C188.187 417.999 179.079 426.644 173.579 422.558C174.584 417.703 187.832 415.216 193.036 416.045C195.757 416.814 197.295 418.472 197.649 418.117C197.058 415.216 190.375 407.518 186.294 407.814Z" fill="url(#paint16_linear_161_3377)"/>
<path d="M175.885 406.334C174.465 406.156 172.987 406.393 171.686 406.926C170.385 407.459 169.261 408.228 168.315 409.235C167.25 410.36 166.422 411.604 165.535 412.847C164.589 414.209 163.583 415.453 162.46 416.696C161.987 417.229 161.454 417.821 160.922 418.295C160.449 418.709 159.917 419.065 159.266 419.006C159.207 418.946 159.089 418.828 159.03 418.769C158.734 418.473 158.497 418.236 158.202 417.94C158.142 417.999 158.142 417.999 158.083 418.058C158.556 418.591 159.03 419.065 159.562 419.538C159.739 419.775 159.857 420.071 159.917 420.367C159.976 420.664 160.094 420.96 159.976 421.256C159.857 421.67 159.621 422.085 159.325 422.381C159.089 422.736 158.793 423.091 158.556 423.387C156.664 425.756 154.476 427.888 152.879 430.493C151.578 432.625 150.691 435.112 151.045 437.658C151.045 437.777 151.223 437.717 151.223 437.599C151.045 436.119 151.282 434.638 151.755 433.217C152.701 430.493 154.594 428.243 156.486 426.052C157.551 424.868 158.556 423.683 159.503 422.381C159.858 421.907 160.271 421.374 160.153 420.723C160.094 420.367 160.035 420.012 159.857 419.716C161.395 420.96 163.051 421.966 164.766 422.973C164.825 423.032 164.944 423.091 165.003 423.091C165.712 424.335 166.008 425.756 165.949 427.236C165.89 430.138 164.589 432.743 163.229 435.29C162.874 436 162.46 436.652 162.105 437.362C161.75 438.014 161.395 438.665 161.159 439.375C160.745 440.56 160.626 441.922 161.277 443.047C161.336 443.106 161.454 443.047 161.395 442.988C160.508 441.566 160.981 439.908 161.632 438.546C162.933 435.823 164.766 433.276 165.594 430.316C166.245 428.065 166.304 425.46 165.18 423.328C166.777 424.276 168.315 425.282 169.734 426.467C170.503 427.118 171.153 427.888 171.804 428.658C172.395 429.368 172.869 430.138 173.401 430.849C174.229 432.092 174.998 433.454 175.767 434.697C176.062 436.237 175.944 437.895 175.707 439.435C175.293 442.277 174.406 445.06 174.643 447.902C174.879 450.449 176.299 453.232 178.901 453.942C179.019 453.942 179.078 453.824 178.96 453.765C177.482 453.35 176.358 452.225 175.707 450.922C174.347 448.376 174.761 445.356 175.293 442.632C175.766 440.145 176.358 437.481 176.003 434.934C176.121 435.112 176.18 435.29 176.299 435.408C177.363 437.007 178.605 438.546 179.966 439.849C182.804 442.632 186.175 444.764 189.546 446.896C189.606 446.955 189.724 446.837 189.665 446.777C189.251 446.54 188.837 446.244 188.423 446.008C185.229 443.935 182.035 441.803 179.374 439.02C180.32 439.435 181.385 439.494 182.449 439.494C183.691 439.494 185.17 439.612 186.057 440.678C186.116 440.737 186.234 440.678 186.175 440.56C185.347 439.553 183.987 439.375 182.804 439.316C181.562 439.257 180.143 439.316 179.078 438.606C177.777 437.185 176.713 435.645 175.707 433.987C174.761 432.447 173.815 430.849 172.75 429.309C172.632 429.19 172.514 429.013 172.455 428.894C173.697 429.723 175.293 429.842 176.713 429.605C178.369 429.368 179.906 428.539 181.385 427.769C182.863 427 184.342 426.348 185.939 425.874C189.014 424.986 192.267 424.868 195.401 425.401C195.52 425.401 195.52 425.282 195.401 425.223C193.686 424.927 191.971 424.809 190.197 424.927C188.659 425.045 187.122 425.282 185.584 425.756C184.046 426.23 182.568 426.881 181.148 427.651C179.67 428.421 178.132 429.191 176.417 429.427C174.879 429.664 173.105 429.427 171.922 428.302C170.976 427.177 169.971 426.111 168.788 425.223C167.191 423.98 165.417 422.973 163.702 421.966C163.524 421.848 163.406 421.789 163.288 421.67C164.411 421.789 165.535 421.552 166.54 421.137C167.664 420.723 168.67 420.012 169.616 419.361C170.621 418.65 171.627 417.999 172.75 417.407C174.82 416.282 177.068 415.393 179.374 414.801C179.492 414.801 179.433 414.624 179.374 414.624C178.073 414.92 176.831 415.334 175.648 415.808C174.584 416.222 173.519 416.755 172.455 417.347C171.39 417.94 170.444 418.591 169.438 419.302C168.433 419.953 167.428 420.664 166.304 421.078C165.239 421.493 164.116 421.67 162.992 421.493C161.691 420.664 160.449 419.835 159.325 418.828C159.917 418.828 160.39 418.532 160.863 418.177C161.513 417.644 162.046 416.992 162.637 416.4C163.702 415.216 164.707 413.972 165.653 412.67C166.54 411.426 167.428 410.123 168.492 408.998C169.498 407.992 170.621 407.163 171.981 406.689C173.223 406.215 174.584 406.097 175.885 406.215C176.003 406.511 176.003 406.393 175.885 406.334Z" fill="white"/>
<path d="M105.625 387.799C109.647 389.99 119.228 388.51 122.007 392.24C118.577 396.444 113.432 390.523 109.174 390.227C105.152 390.404 111.125 400.471 116.803 402.188C121.416 403.787 124.905 398.635 134.723 396.385C143.061 394.372 145.013 396.326 148.798 393.661C155.659 388.687 156.013 377.022 155.008 376.667C154.594 376.489 154.18 378.265 151.519 381.048C151.519 381.522 139.927 391.056 141.228 384.897C144.303 378.857 152.347 381.345 154.771 373.232C156.605 367.133 150.632 360.205 149.981 360.442C152.11 364.705 144.836 374.594 139.868 376.074C136.793 376.726 137.857 374.357 139.75 372.285C145.072 364.527 148.384 360.856 146.965 353.395C145.191 344.276 135.137 344.335 127.152 337.525C127.152 337.525 115.916 343.743 113.846 352.092C111.835 360.146 121.002 361.33 123.249 366.482C124.432 368.613 122.48 371.041 120.351 370.863C116.684 371.219 113.373 367.666 111.007 365.06C107.104 360.797 106.69 358.369 105.448 358.606C102.136 359.02 102.017 370.863 106.512 373.528C110.12 378.621 122.599 377.14 124.55 383.654C120.884 386.97 108.76 381.048 105.093 377.199C103.378 374.949 103.141 372.699 102.609 372.758C101.367 375.423 102.077 385.608 105.625 387.799Z" fill="url(#paint17_linear_161_3377)"/>
<path d="M113.018 395.201C114.082 396.208 115.324 396.859 116.744 397.273C118.104 397.629 119.464 397.688 120.825 397.451C122.303 397.214 123.722 396.681 125.201 396.208C126.739 395.734 128.335 395.26 129.932 394.964C130.642 394.846 131.411 394.668 132.121 394.609C132.712 394.55 133.422 394.609 133.895 395.082C133.895 395.201 133.954 395.319 133.954 395.438C134.013 395.793 134.072 396.208 134.072 396.563C134.131 396.563 134.19 396.563 134.25 396.504C134.19 395.793 134.072 395.142 133.954 394.431C133.954 394.135 134.072 393.839 134.131 393.543C134.25 393.247 134.368 392.951 134.604 392.773C134.959 392.477 135.373 392.359 135.787 392.24C136.201 392.122 136.615 392.003 137.029 391.885C139.986 391.115 143.002 390.76 145.841 389.575C148.148 388.628 150.336 387.148 151.578 384.957C151.637 384.838 151.46 384.779 151.46 384.897C150.75 386.2 149.685 387.266 148.443 388.095C146.019 389.694 143.18 390.404 140.4 390.997C138.863 391.352 137.266 391.648 135.787 392.122C135.255 392.299 134.604 392.477 134.25 393.01C134.072 393.306 133.954 393.661 133.895 394.017C133.422 392.122 132.653 390.286 131.943 388.45C131.884 388.391 131.884 388.273 131.825 388.213C132.002 386.792 132.653 385.49 133.54 384.305C135.314 381.996 137.916 380.693 140.519 379.509C141.228 379.213 141.938 378.858 142.648 378.502C143.298 378.206 144.008 377.851 144.599 377.436C145.664 376.726 146.551 375.719 146.669 374.416C146.669 374.298 146.492 374.298 146.492 374.357C146.374 376.015 144.954 377.081 143.594 377.792C140.933 379.213 137.975 380.16 135.492 381.996C133.599 383.417 132.061 385.49 131.647 387.858C130.938 386.141 130.287 384.424 129.873 382.647C129.637 381.641 129.577 380.634 129.518 379.687C129.518 379.687 129.518 379.687 129.518 379.627C129.518 378.739 129.518 377.792 129.577 376.903C129.696 375.364 129.873 373.883 129.991 372.403C130.701 370.982 131.766 369.738 132.889 368.613C134.9 366.6 137.266 364.883 138.803 362.455C140.164 360.264 140.637 357.244 138.981 355.053C138.922 354.994 138.803 355.053 138.863 355.172C139.809 356.356 140.045 357.955 139.809 359.435C139.336 362.277 137.266 364.409 135.196 366.304C133.303 368.021 131.293 369.798 130.051 372.048C130.051 371.87 130.11 371.633 130.11 371.456C130.228 369.502 130.11 367.607 129.814 365.653C129.163 361.744 127.744 358.014 126.384 354.283C126.325 354.165 126.206 354.224 126.206 354.343C126.384 354.816 126.561 355.231 126.739 355.704C128.099 359.257 129.341 362.929 129.814 366.718C129.341 365.83 128.454 365.12 127.685 364.527C126.68 363.758 125.556 362.81 125.497 361.448C125.497 361.33 125.319 361.33 125.319 361.448C125.378 362.751 126.384 363.698 127.33 364.468C128.335 365.238 129.459 366.067 129.932 367.251C130.11 369.146 130.051 371.1 129.873 372.995C129.696 374.831 129.518 376.667 129.459 378.502C129.459 378.68 129.459 378.858 129.459 379.035C128.986 377.614 127.744 376.548 126.443 375.897C124.964 375.127 123.249 374.831 121.593 374.535C119.937 374.239 118.341 373.883 116.803 373.291C113.846 372.166 111.125 370.331 108.937 367.962C108.878 367.903 108.76 368.021 108.819 368.08C110.002 369.383 111.362 370.508 112.781 371.396C114.082 372.225 115.502 372.936 116.98 373.469C118.518 374.002 120.056 374.357 121.653 374.594C123.308 374.89 125.024 375.186 126.502 375.956C127.862 376.726 129.163 377.969 129.4 379.568C129.459 381.048 129.637 382.47 130.051 383.891C130.583 385.845 131.411 387.681 132.18 389.575C132.239 389.753 132.298 389.872 132.357 390.049C131.529 389.339 130.465 388.806 129.4 388.51C128.276 388.213 127.034 388.154 125.852 388.095C124.61 388.036 123.427 387.977 122.185 387.799C119.819 387.444 117.513 386.852 115.324 385.904C115.206 385.845 115.147 386.023 115.265 386.023C116.448 386.556 117.69 386.97 118.991 387.325C120.115 387.621 121.298 387.858 122.421 387.977C123.604 388.154 124.787 388.154 126.029 388.213C127.212 388.273 128.454 388.332 129.577 388.687C130.642 388.983 131.707 389.516 132.475 390.345C133.008 391.766 133.481 393.188 133.776 394.668C133.303 394.313 132.712 394.253 132.18 394.253C131.352 394.313 130.524 394.49 129.696 394.668C128.099 394.964 126.561 395.379 125.024 395.911C123.545 396.385 122.066 396.918 120.588 397.155C119.169 397.392 117.808 397.333 116.448 396.918C115.206 396.504 114.023 395.852 113.018 394.964C113.077 395.023 112.959 395.142 113.018 395.201Z" fill="white"/>
<path d="M152.169 495.689C151.992 498.058 148.858 517.362 148.562 521.033H120.943C120.588 517.125 117.158 498.235 116.98 495.689H152.169Z" fill="url(#paint18_linear_161_3377)"/>
<path d="M116.98 495.689C117.04 496.044 117.099 497.169 117.276 498.887H127.922C138.271 499.123 146.196 500.367 145.073 509.19C144.777 511.322 144.245 517.539 143.712 521.033H148.621C148.917 517.302 152.051 498.058 152.229 495.689H116.98Z" fill="#CCCCCC"/>
<path d="M151.46 495.689H117.631C115.384 495.689 113.491 494.208 113.491 492.373C113.491 490.537 115.325 489.057 117.631 489.057H151.46C153.707 489.057 155.6 490.537 155.6 492.373C155.6 494.208 153.766 495.689 151.46 495.689Z" fill="url(#paint19_linear_161_3377)"/>
<path d="M141.821 42.8718H261.582C261.582 42.8718 268.619 39.8518 252.71 38.5491C236.801 37.1872 241.296 29.4892 237.452 30.8512C233.608 32.2131 229.882 36.6542 223.021 30.6735C213.145 22.0873 204.924 15.5737 199.72 24.6336C194.515 33.6935 188.483 31.7986 185.822 29.7853C180.972 26.1732 172.574 23.923 168.198 29.7853C163.821 35.6476 157.138 28.8379 152.289 28.4826C147.735 28.1273 148.444 36.5358 141.407 37.5425C134.369 38.5491 127.981 37.5424 128.159 39.7334C128.218 41.8651 140.283 42.8718 141.821 42.8718Z" fill="url(#paint20_linear_161_3377)"/>
<path d="M462.839 135.129H582.541C582.541 135.129 589.578 132.109 573.669 130.806C557.76 129.444 562.255 121.746 558.411 123.108C554.567 124.47 550.841 128.911 543.98 122.93C534.104 114.344 525.883 107.831 520.679 116.89C515.474 125.95 509.442 124.055 506.781 122.042C501.931 118.43 493.533 116.18 489.156 122.042C484.78 127.904 478.097 121.095 473.248 120.739C468.694 120.384 469.403 128.793 462.365 129.799C455.328 130.806 448.94 129.799 449.118 131.99C449.236 134.122 461.301 135.129 462.839 135.129Z" fill="url(#paint21_linear_161_3377)"/>
<path d="M385.719 57.0242C383.708 53.3529 378.622 50.7474 373.654 52.0501C368.39 53.4713 366.379 58.9191 366.143 59.5112C366.143 59.7481 366.143 59.9849 366.143 60.2218C366.143 59.9849 366.143 59.7481 366.143 59.5112C365.906 58.8599 363.896 53.4713 358.632 52.0501C353.723 50.6882 348.637 53.2936 346.567 57.0242C342.9 63.7747 350.648 72.124 351.535 73.0714C356.799 78.7561 363.718 79.6443 366.261 79.8812C366.32 79.8812 366.379 79.8812 366.439 79.8812C366.498 79.8812 366.557 79.8812 366.616 79.8812C369.1 79.6443 375.724 78.5784 380.81 73.0714C381.697 72.124 389.385 63.7747 385.719 57.0242Z" fill="url(#paint22_linear_161_3377)"/>
<path d="M426.94 43.5823C426.585 40.5624 423.864 37.3648 420.138 36.9503C416.176 36.4765 413.337 39.5557 412.982 39.911C412.923 40.0886 412.864 40.2071 412.805 40.3847C412.864 40.2071 412.923 40.0886 412.982 39.911C412.982 39.4373 413.101 35.233 409.907 32.8052C406.95 30.555 402.81 30.9103 400.385 32.8644C396.009 36.4173 399.025 44.2337 399.321 45.1219C401.331 50.3921 405.767 52.9383 407.423 53.7673C407.482 53.7673 407.482 53.8265 407.541 53.8265C407.6 53.8265 407.66 53.8265 407.66 53.8857C409.434 54.4187 414.165 55.4845 419.133 53.1752C420.02 52.7014 427.59 49.1485 426.94 43.5823Z" fill="url(#paint23_linear_161_3377)"/>
<path d="M399.085 2.60546C397.665 0.532941 394.531 -0.710574 391.692 0.414511C388.676 1.59881 387.789 4.85563 387.67 5.27014C387.67 5.38857 387.67 5.56621 387.729 5.68464C387.729 5.56621 387.67 5.38857 387.67 5.27014C387.493 4.91485 386.014 1.83567 382.821 1.30274C379.864 0.829016 376.966 2.66468 376.019 4.91485C374.245 9.11911 379.331 13.6195 379.864 14.0932C383.294 17.1131 387.434 17.2908 388.912 17.2316C388.971 17.2316 388.971 17.2316 389.031 17.2316C389.09 17.2316 389.09 17.2316 389.149 17.2316C390.627 16.9355 394.472 15.9288 397.133 12.3759C397.547 11.7246 401.628 6.39522 399.085 2.60546Z" fill="url(#paint24_linear_161_3377)"/>
<path d="M308.362 25.6402C308.717 25.2849 308.54 24.6335 308.007 24.5743L305.169 24.1598C304.932 24.1006 304.755 23.9821 304.695 23.8045L303.453 21.199C303.217 20.7253 302.566 20.7253 302.33 21.199L301.029 23.8045C300.91 23.9821 300.733 24.1006 300.556 24.1598L297.658 24.5743C297.125 24.6335 296.948 25.2849 297.303 25.6402L299.373 27.7127C299.55 27.8311 299.609 28.068 299.55 28.3048L299.018 31.1472C298.9 31.6801 299.491 32.0946 299.964 31.7985L302.566 30.4958C302.744 30.3774 302.98 30.3774 303.158 30.4958L305.701 31.8577C306.174 32.0946 306.706 31.7393 306.647 31.2064L306.174 28.3641C306.115 28.1272 306.233 27.9495 306.351 27.7719L308.362 25.6402Z" fill="url(#paint25_linear_161_3377)"/>
<path d="M547.115 436.415C547.47 436.059 547.293 435.408 546.76 435.349L543.921 434.934C543.685 434.875 543.507 434.757 543.448 434.579L542.206 431.973C541.97 431.5 541.319 431.5 541.083 431.973L539.782 434.579C539.663 434.757 539.486 434.875 539.308 434.934L536.411 435.349C535.878 435.408 535.701 436.059 536.056 436.415L538.126 438.487C538.303 438.606 538.362 438.842 538.303 439.079L537.771 441.922C537.652 442.454 538.244 442.869 538.717 442.573L541.319 441.27C541.497 441.152 541.733 441.152 541.911 441.27L544.454 442.632C544.927 442.869 545.459 442.514 545.4 441.981L544.927 439.138C544.868 438.902 544.986 438.724 545.104 438.546L547.115 436.415Z" fill="url(#paint26_linear_161_3377)"/>
<path d="M505.361 42.9308C505.775 42.8124 506.189 42.8716 506.544 43.1084C507.017 43.4045 507.313 43.9375 507.313 44.4704V49.9774C507.313 50.5695 507.017 51.0432 506.544 51.3393C506.071 51.6354 505.479 51.6354 504.947 51.3393L500.157 48.5562C499.683 48.2601 499.388 47.7272 499.388 47.1943C499.388 46.6021 499.683 46.1284 500.157 45.8323L504.947 43.1084C505.065 42.99 505.184 42.99 505.361 42.9308ZM505.834 50.3327C505.893 50.3327 505.893 50.3327 505.893 50.2735C505.952 50.2735 506.071 50.155 506.071 49.9774V44.4704C506.071 44.2927 505.952 44.2335 505.893 44.1743C505.834 44.1743 505.716 44.1151 505.538 44.1743L500.748 46.8982C500.571 46.9574 500.571 47.1351 500.571 47.1943C500.571 47.2535 500.571 47.3719 500.748 47.4903L505.538 50.2735C505.657 50.3327 505.775 50.3327 505.834 50.3327Z" fill="url(#paint27_linear_161_3377)"/>
<path d="M50.3287 273.455C50.7427 273.336 51.1567 273.396 51.5116 273.632C51.9847 273.928 52.2804 274.461 52.2804 274.994V280.501C52.2804 281.093 51.9847 281.567 51.5116 281.863C51.0384 282.159 50.447 282.159 49.9147 281.863L45.1243 279.08C44.6512 278.784 44.3555 278.251 44.3555 277.718C44.3555 277.126 44.6512 276.652 45.1243 276.356L49.9147 273.632C50.033 273.514 50.1513 273.455 50.3287 273.455ZM50.8019 280.797C50.861 280.797 50.861 280.797 50.861 280.738C50.9201 280.738 51.0384 280.62 51.0384 280.442V274.935C51.0384 274.757 50.9201 274.698 50.861 274.639C50.8019 274.639 50.6836 274.58 50.5062 274.639L45.7157 277.363C45.5383 277.422 45.5383 277.6 45.5383 277.659C45.5383 277.718 45.5383 277.837 45.7157 277.955L50.5062 280.738C50.6244 280.857 50.7427 280.857 50.8019 280.797Z" fill="url(#paint28_linear_161_3377)"/>
<path d="M128.75 88.1116C126.502 88.1116 124.669 86.2759 124.669 84.0258C124.669 81.7756 126.502 79.9399 128.75 79.9399C130.997 79.9399 132.83 81.7756 132.83 84.0258C132.771 86.3352 130.938 88.1116 128.75 88.1116ZM128.75 81.3019C127.212 81.3019 125.97 82.5454 125.97 84.085C125.97 85.6246 127.212 86.8681 128.75 86.8681C130.287 86.8681 131.529 85.6246 131.529 84.085C131.529 82.5454 130.287 81.3019 128.75 81.3019Z" fill="url(#paint29_linear_161_3377)"/>
<path d="M503.35 180.073C501.103 180.073 499.27 178.237 499.27 175.987C499.27 173.737 501.103 171.901 503.35 171.901C505.598 171.901 507.431 173.737 507.431 175.987C507.431 178.237 505.598 180.073 503.35 180.073ZM503.35 173.204C501.813 173.204 500.571 174.448 500.571 175.987C500.571 177.527 501.813 178.77 503.35 178.77C504.888 178.77 506.13 177.527 506.13 175.987C506.13 174.448 504.888 173.204 503.35 173.204Z" fill="url(#paint30_linear_161_3377)"/>
<path d="M80.4313 485.622C78.184 485.622 76.3506 483.786 76.3506 481.536C76.3506 479.286 78.184 477.45 80.4313 477.45C82.6787 477.45 84.5121 479.286 84.5121 481.536C84.5121 483.845 82.6787 485.622 80.4313 485.622ZM80.4313 478.812C78.8937 478.812 77.6517 480.056 77.6517 481.595C77.6517 483.135 78.8937 484.378 80.4313 484.378C81.969 484.378 83.211 483.135 83.211 481.595C83.211 480.056 81.969 478.812 80.4313 478.812Z" fill="url(#paint31_linear_161_3377)"/>
</g>
<defs>
<linearGradient id="paint0_linear_161_3377" x1="566.734" y1="244.97" x2="511.503" y2="329.276" gradientUnits="userSpaceOnUse">
<stop stop-color="#84D4FF"/>
<stop offset="1" stop-color="#F5CBFB"/>
</linearGradient>
<linearGradient id="paint1_linear_161_3377" x1="584.411" y1="318.03" x2="469.837" y2="397.611" gradientUnits="userSpaceOnUse">
<stop stop-color="#FF66BA"/>
<stop offset="1" stop-color="#8A1988"/>
</linearGradient>
<linearGradient id="paint2_linear_161_3377" x1="573.696" y1="324.556" x2="501.458" y2="419.729" gradientUnits="userSpaceOnUse">
<stop stop-color="#FF66BA"/>
<stop offset="1" stop-color="#8A1988"/>
</linearGradient>
<linearGradient id="paint3_linear_161_3377" x1="90.287" y1="112.2" x2="145.517" y2="196.506" gradientUnits="userSpaceOnUse">
<stop stop-color="#84D4FF"/>
<stop offset="1" stop-color="#F5CBFB"/>
</linearGradient>
<linearGradient id="paint4_linear_161_3377" x1="72.61" y1="185.26" x2="187.184" y2="264.842" gradientUnits="userSpaceOnUse">
<stop stop-color="#FF66BA"/>
<stop offset="1" stop-color="#8A1988"/>
</linearGradient>
<linearGradient id="paint5_linear_161_3377" x1="83.3262" y1="191.786" x2="155.564" y2="286.959" gradientUnits="userSpaceOnUse">
<stop stop-color="#FF66BA"/>
<stop offset="1" stop-color="#8A1988"/>
</linearGradient>
<linearGradient id="paint6_linear_161_3377" x1="434.477" y1="331.626" x2="486.576" y2="388.162" gradientUnits="userSpaceOnUse">
<stop stop-color="#174F8C"/>
<stop offset="1" stop-color="#032747"/>
</linearGradient>
<linearGradient id="paint7_linear_161_3377" x1="451.903" y1="191.287" x2="499.509" y2="260.355" gradientUnits="userSpaceOnUse">
<stop stop-color="#174F8C"/>
<stop offset="1" stop-color="#032747"/>
</linearGradient>
<linearGradient id="paint8_linear_161_3377" x1="414.88" y1="231.805" x2="411.37" y2="254.845" gradientUnits="userSpaceOnUse">
<stop stop-color="#174F8C"/>
<stop offset="1" stop-color="#032747"/>
</linearGradient>
<linearGradient id="paint9_linear_161_3377" x1="435.826" y1="234.444" x2="500.466" y2="323.777" gradientUnits="userSpaceOnUse">
<stop stop-color="#FFDD4F"/>
<stop offset="1" stop-color="#FF8F5C"/>
</linearGradient>
<linearGradient id="paint10_linear_161_3377" x1="445.707" y1="504.803" x2="455.977" y2="515.685" gradientUnits="userSpaceOnUse">
<stop stop-color="#174F8C"/>
<stop offset="1" stop-color="#032747"/>
</linearGradient>
<linearGradient id="paint11_linear_161_3377" x1="508.422" y1="498.351" x2="522.944" y2="509.854" gradientUnits="userSpaceOnUse">
<stop stop-color="#174F8C"/>
<stop offset="1" stop-color="#032747"/>
</linearGradient>
<linearGradient id="paint12_linear_161_3377" x1="154.715" y1="89.1946" x2="388.538" y2="512.705" gradientUnits="userSpaceOnUse">
<stop stop-color="#78B0FA"/>
<stop offset="1" stop-color="#003780"/>
</linearGradient>
<linearGradient id="paint13_linear_161_3377" x1="270.288" y1="99.819" x2="277.428" y2="108.701" gradientUnits="userSpaceOnUse">
<stop stop-color="#78B0FA"/>
<stop offset="1" stop-color="#003780"/>
</linearGradient>
<linearGradient id="paint14_linear_161_3377" x1="182.805" y1="162.089" x2="363.026" y2="273.087" gradientUnits="userSpaceOnUse">
<stop stop-color="#84D4FF"/>
<stop offset="1" stop-color="#F5CBFB"/>
</linearGradient>
<linearGradient id="paint15_linear_161_3377" x1="68.0608" y1="415.909" x2="125.658" y2="415.909" gradientUnits="userSpaceOnUse">
<stop stop-color="#FFDD4F"/>
<stop offset="1" stop-color="#FF8F5C"/>
</linearGradient>
<linearGradient id="paint16_linear_161_3377" x1="147.651" y1="432.794" x2="204.395" y2="432.794" gradientUnits="userSpaceOnUse">
<stop stop-color="#FFDD4F"/>
<stop offset="1" stop-color="#FF8F5C"/>
</linearGradient>
<linearGradient id="paint17_linear_161_3377" x1="102.06" y1="369.985" x2="155.387" y2="369.985" gradientUnits="userSpaceOnUse">
<stop stop-color="#FFDD4F"/>
<stop offset="1" stop-color="#FF8F5C"/>
</linearGradient>
<linearGradient id="paint18_linear_161_3377" x1="115.187" y1="485.75" x2="145.744" y2="518.02" gradientUnits="userSpaceOnUse">
<stop stop-color="#FF66BA"/>
<stop offset="1" stop-color="#8A1988"/>
</linearGradient>
<linearGradient id="paint19_linear_161_3377" x1="122.124" y1="479.182" x2="152.68" y2="511.452" gradientUnits="userSpaceOnUse">
<stop stop-color="#FF66BA"/>
<stop offset="1" stop-color="#8A1988"/>
</linearGradient>
<linearGradient id="paint20_linear_161_3377" x1="145.786" y1="15.5679" x2="244.889" y2="65.0578" gradientUnits="userSpaceOnUse">
<stop stop-color="#84D4FF"/>
<stop offset="1" stop-color="#F5CBFB"/>
</linearGradient>
<linearGradient id="paint21_linear_161_3377" x1="462.302" y1="107.325" x2="566.656" y2="156.062" gradientUnits="userSpaceOnUse">
<stop stop-color="#84D4FF"/>
<stop offset="1" stop-color="#F5CBFB"/>
</linearGradient>
<linearGradient id="paint22_linear_161_3377" x1="351.293" y1="44.5074" x2="380.663" y2="79.0789" gradientUnits="userSpaceOnUse">
<stop stop-color="#FF66BA"/>
<stop offset="1" stop-color="#8A1988"/>
</linearGradient>
<linearGradient id="paint23_linear_161_3377" x1="407.055" y1="25.6539" x2="417.451" y2="57.1019" gradientUnits="userSpaceOnUse">
<stop stop-color="#FF66BA"/>
<stop offset="1" stop-color="#8A1988"/>
</linearGradient>
<linearGradient id="paint24_linear_161_3377" x1="378.047" y1="-2.74673" x2="397.388" y2="15.8985" gradientUnits="userSpaceOnUse">
<stop stop-color="#FF66BA"/>
<stop offset="1" stop-color="#8A1988"/>
</linearGradient>
<linearGradient id="paint25_linear_161_3377" x1="297.056" y1="26.276" x2="308.565" y2="26.276" gradientUnits="userSpaceOnUse">
<stop stop-color="#FFDD4F"/>
<stop offset="1" stop-color="#FF8F5C"/>
</linearGradient>
<linearGradient id="paint26_linear_161_3377" x1="535.787" y1="437.063" x2="547.295" y2="437.063" gradientUnits="userSpaceOnUse">
<stop stop-color="#FFDD4F"/>
<stop offset="1" stop-color="#FF8F5C"/>
</linearGradient>
<linearGradient id="paint27_linear_161_3377" x1="499.377" y1="47.2177" x2="507.325" y2="47.2177" gradientUnits="userSpaceOnUse">
<stop stop-color="#FF66BA"/>
<stop offset="1" stop-color="#8A1988"/>
</linearGradient>
<linearGradient id="paint28_linear_161_3377" x1="44.3527" y1="277.736" x2="52.3016" y2="277.736" gradientUnits="userSpaceOnUse">
<stop stop-color="#FF66BA"/>
<stop offset="1" stop-color="#8A1988"/>
</linearGradient>
<linearGradient id="paint29_linear_161_3377" x1="124.668" y1="84.0772" x2="132.779" y2="84.0772" gradientUnits="userSpaceOnUse">
<stop stop-color="#78B0FA"/>
<stop offset="1" stop-color="#003780"/>
</linearGradient>
<linearGradient id="paint30_linear_161_3377" x1="499.295" y1="175.994" x2="507.407" y2="175.994" gradientUnits="userSpaceOnUse">
<stop stop-color="#78B0FA"/>
<stop offset="1" stop-color="#003780"/>
</linearGradient>
<linearGradient id="paint31_linear_161_3377" x1="76.3919" y1="481.585" x2="84.5036" y2="481.585" gradientUnits="userSpaceOnUse">
<stop stop-color="#78B0FA"/>
<stop offset="1" stop-color="#003780"/>
</linearGradient>
<clipPath id="clip0_161_3377">
<rect width="657" height="525" fill="white"/>
</clipPath>
</defs>
</svg>
