<svg width="550" height="431" viewBox="0 0 550 431" fill="none" xmlns="http://www.w3.org/2000/svg">
<path d="M298.219 7.45062C296.072 -0.649313 284.788 -0.857004 276.55 0.87375C238.334 8.83522 195.55 22.6813 158.304 34.4504C136.22 41.7196 114.759 50.8579 94.1973 61.6578C87.9665 64.9117 80.8358 71.4885 84.2973 77.5808C86.7896 81.9423 93.0203 82.0807 98.0741 81.5269C150.966 75.9885 203.027 63.1117 252.388 43.3118C266.303 37.7042 280.219 31.4735 291.434 21.5736C295.588 17.9736 299.603 12.7813 298.219 7.45062Z" fill="#F7F9FB"/>
<path d="M496.841 304.656C497.464 315.802 496.01 327.709 490.541 338.579C490.402 338.786 490.333 338.994 490.195 339.202C490.125 339.34 490.056 339.409 489.987 339.548C489.641 340.24 489.295 340.863 488.879 341.555C486.941 344.809 484.656 347.994 481.956 350.971C478.564 354.709 474.341 358.032 469.495 361.078C468.872 361.494 468.249 361.84 467.626 362.186C466.241 363.017 464.787 363.778 463.333 364.54C433.98 379.909 388.634 385.517 363.227 387.524C356.927 387.663 350.627 388.009 344.396 388.563C333.458 389.601 322.658 391.332 311.927 393.824C275.235 402.27 240.758 418.886 203.928 426.778C170.974 433.839 133.798 432.732 106.244 414.386C100.429 410.509 95.8596 405.178 92.675 398.947C89.1442 391.886 86.1674 385.586 83.052 379.632C82.5674 378.732 82.0828 377.763 81.5982 376.863C81.5289 376.724 81.4597 376.586 81.3905 376.447C77.5828 369.386 73.4982 362.601 67.8214 355.54C66.9906 354.501 66.0906 353.394 65.1906 352.286C64.706 351.732 64.2906 351.178 63.7368 350.625C63.5983 350.486 63.4599 350.278 63.3214 350.071C61.9368 348.478 60.4137 346.817 58.8214 345.155C53.283 339.409 47.3985 334.079 41.6524 328.471C41.1678 327.986 40.6139 327.502 40.1293 327.017C39.7139 326.602 39.3678 326.256 38.9524 325.84C37.4293 324.317 35.9063 322.725 34.3832 321.133C7.24497 291.225 -5.14723 248.372 1.98347 208.564C9.11418 168.757 35.6293 132.896 71.5598 114.411C78.1367 111.019 84.9904 108.181 91.9827 105.827C92.8827 105.481 93.8519 105.204 94.7519 104.927C117.875 97.4498 142.659 94.3345 166.682 89.9038C215.559 80.9038 263.397 66.0193 308.742 45.7349C316.288 42.3426 323.765 38.8119 331.311 35.2811C332.211 34.8658 333.181 34.4504 334.081 33.9658C358.242 22.6813 382.611 11.7429 408.849 7.31216C420.134 5.37372 431.764 4.68141 442.841 7.24293C472.472 14.0275 493.31 44.558 493.31 74.8808C493.31 109.565 470.602 141.411 471.295 176.095C471.502 188.418 474.756 200.326 479.533 211.68C484.033 222.41 489.987 232.656 496.287 242.418C496.702 243.041 497.118 243.664 497.533 244.287C501.756 250.864 506.187 257.302 510.479 263.879L496.079 296.21C496.356 298.979 496.633 301.817 496.841 304.656Z" fill="#F7F9FB"/>
<path d="M490.543 338.579C490.404 338.786 490.335 338.994 490.196 339.202L172.776 371.671H172.499L63.877 350.555C63.7386 350.417 63.6001 350.209 63.4616 350.002C62.077 348.409 60.554 346.748 58.9617 345.086C53.4233 339.34 47.5387 334.009 41.7926 328.402C41.308 327.917 40.7541 327.432 40.2695 326.948L326.121 313.24L458.835 306.871L492.066 304.933L496.773 304.656C497.466 315.871 496.012 327.709 490.543 338.579Z" fill="#B29EEF"/>
<path d="M334.082 33.9658V223.656C334.082 224.418 333.459 225.041 332.697 225.041C331.936 225.041 331.312 224.418 331.312 223.656V35.212C332.212 34.7966 333.112 34.3812 334.082 33.9658Z" fill="#E1CCFF"/>
<path d="M490.055 339.548C489.709 340.24 489.363 340.863 488.948 341.555C487.009 344.809 484.725 347.994 482.025 350.971C478.632 354.709 474.409 358.032 469.563 361.078C468.94 361.494 468.317 361.84 467.694 362.186L216.181 391.124L176.581 395.693L175.889 383.093L175.404 373.747H175.474L196.312 371.463L490.055 339.548Z" fill="white"/>
<path d="M94.6833 104.927V305.556C94.6833 306.317 94.0602 306.94 93.2987 306.94C92.5371 306.94 91.9141 306.317 91.9141 305.556V105.827C92.8833 105.48 93.7833 105.204 94.6833 104.927Z" fill="#E1CCFF"/>
<path d="M201.088 202.264C197.281 194.788 189.804 189.941 178.796 187.795C172.081 186.48 164.05 186.134 154.704 186.826C111.574 190.011 79.8664 198.526 60.4127 212.095C47.1205 221.372 41.5129 238.61 46.7744 254.049L70.7972 324.733L71.628 327.156L134.212 322.725L148.75 321.686H149.027L149.235 321.479C149.235 321.479 149.304 321.409 149.373 321.271C151.173 319.125 167.65 299.048 181.912 275.371C202.265 241.726 208.704 217.08 201.088 202.264ZM148.335 320.371L98.7662 323.833L75.9895 325.425L72.5972 325.702L72.2511 324.733L48.0205 253.564C42.9667 238.679 48.3667 222.064 61.105 213.203C75.4357 203.234 96.6201 195.964 124.312 191.672C124.381 191.672 124.381 191.672 124.451 191.672C133.797 190.218 143.904 189.111 154.704 188.28C157.889 188.072 160.935 187.934 163.773 187.934C182.535 187.934 194.65 192.988 199.773 203.026C217.011 236.464 152.35 315.525 148.335 320.371Z" fill="#54238E"/>
<path d="M76.2677 326.463L51.5525 253.772C46.4295 238.61 51.7602 221.787 64.9139 212.649C80.2138 201.987 108.044 191.326 158.859 187.518C271.912 179.141 152.836 321.063 152.836 321.063L76.2677 326.463Z" fill="#54238E"/>
<path d="M283.057 68.65C283.611 66.5039 283.749 64.5655 283.68 62.6963C283.611 60.827 283.403 58.8886 283.265 56.8117C283.057 55.4963 282.78 54.2502 282.365 52.9348C280.842 47.881 277.726 43.1733 273.642 39.7118C265.542 32.8581 254.603 30.2965 244.011 29.9504C228.157 29.3965 210.919 34.1734 201.504 46.9118C193.404 57.7809 192.435 72.1116 188.765 85.1961C182.742 106.657 169.035 125.211 153.32 140.926C144.112 150.134 133.589 159.549 131.166 172.357C128.812 184.957 135.389 198.11 145.497 205.933C149.166 208.772 153.389 211.056 157.889 212.164C162.458 213.272 167.304 213.203 172.012 212.441C186.342 210.018 198.665 201.226 210.781 193.195C212.027 192.364 213.204 191.603 214.45 190.703C223.242 184.057 223.934 172.288 230.857 163.98C232.104 162.318 233.28 161.142 234.596 160.38C250.934 159.826 277.934 150.826 282.157 173.88C282.572 175.126 283.057 176.441 283.542 177.618C285.549 182.464 288.249 186.411 294.411 186.757C295.449 186.826 296.557 186.895 297.664 186.895C303.064 186.826 308.603 185.441 312.341 181.634C316.357 177.618 317.672 171.595 317.672 165.918C317.741 158.026 315.664 150.134 311.718 143.28C310.195 140.649 308.464 138.157 306.526 135.803C305.557 134.626 304.588 133.519 303.549 132.411C289.011 122.442 279.318 105.827 281.326 87.9653C281.326 86.2345 281.395 84.5038 281.534 82.773C281.88 77.5807 282.642 72.3192 283.472 67.1962L283.057 68.65Z" fill="#400F58"/>
<path d="M276.414 71.4885C273.16 81.1808 277.383 91.2191 283.613 98.7652C291.367 108.181 301.336 115.104 307.982 125.488C314.629 135.873 319.959 149.096 317.259 161.557C316.152 166.68 313.313 168.826 308.467 170.142C304.383 171.249 300.506 172.426 296.975 174.918C296.144 175.472 296.906 176.857 297.736 176.234C301.821 173.395 306.252 172.565 310.89 171.042C313.798 170.072 316.152 168.48 317.536 165.711C322.175 156.226 318.505 143.142 314.421 134.142C309.298 122.857 301.406 114.342 292.544 105.896C283.475 97.2422 273.367 85.4038 277.937 71.9039C278.214 70.9347 276.76 70.5193 276.414 71.4885Z" fill="#400F58"/>
<path d="M224.213 151.795L232.244 145.911L242.49 141.065L274.059 151.795L287.559 294.479L252.736 303.271L228.713 230.926L224.213 151.795Z" fill="white"/>
<path d="M288.319 131.442C301.404 134.073 313.796 141.48 320.719 153.111C327.919 165.226 328.057 181.08 320.096 192.849C319.542 193.68 320.857 194.441 321.411 193.61C329.511 181.703 329.511 165.641 322.588 153.18C315.596 140.719 302.581 132.619 288.735 129.85C287.765 129.78 287.35 131.234 288.319 131.442Z" fill="#400F58"/>
<path d="M182.259 113.027C172.013 121.057 162.251 129.711 152.005 137.811C143.905 144.18 134.905 149.857 129.228 158.719C118.013 176.165 126.182 197.695 141.621 209.464C150.274 216.041 162.044 221.303 172.982 217.91C173.951 217.633 173.536 216.11 172.567 216.387C162.528 219.503 151.797 214.864 143.628 208.98C135.528 203.164 129.021 194.857 126.528 185.095C124.105 175.611 126.113 165.503 131.859 157.611C137.467 149.926 145.705 144.803 153.044 138.988C163.29 130.888 173.051 122.303 183.297 114.204C184.128 113.511 183.02 112.404 182.259 113.027Z" fill="#400F58"/>
<path d="M317.396 333.871L212.65 331.379C212.65 328.54 214.797 326.186 217.566 325.909L325.703 314.209L317.396 333.871Z" fill="#400F58"/>
<path d="M197.905 74.8116C196.659 86.8576 194.166 98.9037 188.974 109.911C183.851 120.85 175.751 129.365 167.443 137.949C160.036 145.634 152.628 153.734 148.959 163.98C145.913 172.495 146.605 181.772 150.62 189.872C154.636 197.972 162.043 203.857 171.32 203.649C172.29 203.649 172.359 202.057 171.32 202.126C161.905 202.334 154.844 195.826 151.244 187.587C146.951 177.688 148.336 167.095 153.528 157.819C158.79 148.334 166.959 140.926 174.297 133.103C181.359 125.626 187.382 117.596 191.466 108.111C195.966 97.5883 198.251 86.3038 199.428 74.95C199.566 73.8423 197.974 73.8423 197.905 74.8116Z" fill="white"/>
<path d="M275.512 103.681C275.443 117.18 286.589 125.973 294.827 135.111C299.743 140.511 304.104 146.742 304.519 154.288C305.004 161.695 301.889 168.895 296.489 173.811C295.727 174.503 296.835 175.611 297.596 174.918C307.358 166.057 308.535 151.934 301.473 141.065C293.512 128.742 276.966 119.95 277.035 103.681C277.035 102.642 275.512 102.642 275.512 103.681Z" fill="white"/>
<path d="M269.557 150.411C272.603 156.849 269.903 164.395 270.941 171.388C276.895 212.303 275.372 254.256 275.995 295.517C276.064 301.817 276.341 308.533 280.287 313.448C281.049 314.348 281.949 315.248 283.057 315.594C283.957 315.871 284.926 315.802 285.895 315.733C299.256 314.902 312.687 314.14 326.048 313.309C321.687 287.625 317.325 261.941 313.033 236.187C323.487 249.133 333.941 262.079 344.325 275.025C348.756 263.464 353.187 251.902 357.548 240.341C358.102 238.956 358.587 237.502 358.379 236.049C358.171 234.733 357.479 233.626 356.717 232.518C346.541 217.149 335.81 202.195 324.525 187.587C317.672 178.726 310.541 169.934 301.472 163.426C292.195 156.642 280.633 153.111 269.557 150.411Z" fill="#FDCB22"/>
<path d="M320.719 307.91C320.719 308.81 320.027 309.571 319.334 310.056C317.95 310.956 316.357 311.302 314.696 311.51C307.358 312.479 299.811 311.371 293.165 308.187C295.865 311.856 298.565 315.456 301.335 319.125C301.681 319.609 302.096 320.163 301.888 320.786C301.75 321.271 301.335 321.548 300.919 321.825C300.365 322.171 299.811 322.448 299.188 322.725C296.073 324.179 292.542 324.732 289.081 324.248C281.812 323.279 275.65 317.948 268.312 316.979C264.643 316.494 260.904 317.117 257.166 317.325C253.427 317.533 249.481 317.256 246.435 315.11C245.673 314.625 245.05 313.933 244.704 313.102C243.874 311.025 245.466 308.81 246.781 306.94C247.197 306.387 247.543 305.763 247.958 305.14C249.827 302.025 251.143 298.564 251.766 294.964C255.781 294.687 260.904 293.371 264.781 292.333C270.458 290.81 276.55 288.456 281.881 290.81C283.127 291.364 284.304 292.125 285.412 292.887C294.827 299.187 305.073 305.556 316.427 305.556C318.157 305.694 320.719 306.11 320.719 307.91Z" fill="#FFB9A3"/>
<path d="M299.188 322.794C296.073 324.248 292.542 324.802 289.081 324.317C281.812 323.348 275.65 318.017 268.312 317.048C264.643 316.563 260.904 317.186 257.166 317.394C253.427 317.602 249.481 317.325 246.435 315.179C245.673 314.694 245.05 314.002 244.704 313.171C243.874 311.094 245.466 308.879 246.781 307.01C247.197 306.456 247.543 305.833 247.958 305.21C250.589 307.148 256.196 309.433 266.789 308.117C283.542 306.04 280.081 315.733 292.058 319.194C295.865 320.44 298.012 321.686 299.188 322.794Z" fill="#FF9B8D"/>
<path d="M280.012 49.8194C272.881 26.7658 246.02 21.5043 225.113 26.835C215.005 29.3965 205.451 34.7965 198.805 42.8964C190.913 52.5194 187.867 64.9116 185.998 76.9577C184.821 84.7807 184.198 92.7422 182.398 100.496C181.359 104.996 178.936 109.011 177.344 113.304C176.998 114.273 178.521 114.619 178.867 113.719C180.113 110.465 181.844 107.419 183.021 104.165C184.751 99.2498 185.374 93.7806 186.067 88.6576C187.728 76.4731 188.974 63.8732 194.444 52.7271C204.136 32.9965 226.566 24.412 247.682 26.9735C261.805 28.7042 274.197 36.1119 278.558 50.2348C278.835 51.204 280.289 50.7887 280.012 49.8194Z" fill="#400F58"/>
<path d="M228.85 85.75C221.65 83.6038 218.05 86.5115 217.15 91.5653C216.25 96.6191 220.888 101.95 226.08 101.742C226.565 108.042 227.465 114.342 230.026 120.088C232.588 125.834 236.88 131.026 242.696 133.45C249.203 136.15 257.095 134.903 262.426 130.334C264.572 128.534 266.303 126.25 267.895 123.965C272.88 116.973 277.172 109.288 279.041 100.911C280.911 92.5345 280.218 83.3269 275.649 75.9885C275.165 75.227 274.611 74.3962 273.78 73.9808C272.603 73.3578 271.149 73.6347 269.903 73.9808C256.057 77.7193 243.111 85.8192 228.85 85.75Z" fill="#FFB9A3"/>
<path d="M282.434 55.2194C283.473 58.8886 284.511 62.627 284.373 66.4346C284.234 70.2423 282.711 74.1884 279.527 76.3346C277.034 77.9961 273.85 78.3422 270.942 79.3115C265.127 81.2499 260.627 85.8191 256.058 89.9729C251.765 93.919 246.365 97.7959 240.689 96.6882C235.427 95.6498 231.966 90.6652 229.819 85.7499C228.642 83.1191 227.742 80.2115 228.366 77.4422C228.781 75.85 229.681 74.3961 230.65 73.0807C236.396 65.5347 245.673 61.3808 255.088 59.9962C264.434 58.5424 273.988 59.5116 283.404 60.4809L282.434 55.2194Z" fill="#400F58"/>
<path d="M230.027 86.0268C232.035 97.9344 245.604 103.819 255.573 96.8268C260.281 93.5037 263.396 88.4499 267.481 84.5038C271.842 80.2807 279.527 78.4808 280.773 71.7654C280.981 70.7962 279.458 70.3808 279.25 71.35C278.142 77.3731 271.15 79.1038 267.065 82.7038C263.812 85.6115 261.25 89.2807 258.204 92.4652C254.119 96.6883 248.789 99.319 242.835 98.0037C236.743 96.6883 232.52 91.6345 231.55 85.6115C231.343 84.6422 229.82 85.0576 230.027 86.0268Z" fill="#400F58"/>
<path d="M490.543 338.579C490.404 338.786 490.335 338.994 490.196 339.202C490.127 339.34 490.058 339.409 489.989 339.548C489.643 340.24 489.296 340.863 488.881 341.556L196.176 371.463L175.338 373.609V373.748L175.822 383.094L176.445 395.832L216.114 391.124L469.497 361.078C468.874 361.494 468.25 361.84 467.627 362.186C466.243 363.017 464.789 363.778 463.335 364.54L175.268 398.67C175.199 398.67 175.13 398.67 175.13 398.67C174.784 398.67 174.507 398.532 174.23 398.324C173.953 398.117 173.745 397.701 173.745 397.355L172.568 372.363C172.568 372.086 172.638 371.878 172.707 371.671C172.915 371.255 173.33 370.978 173.745 370.978L490.543 338.579Z" fill="#6737C3"/>
<path d="M175.335 372.57C175.196 373.194 174.643 373.678 173.95 373.678C173.881 373.678 173.743 373.678 173.673 373.678L172.773 373.47L66.6436 352.494L65.3282 352.217C64.7051 351.525 64.0821 350.763 63.459 350.001C63.7359 349.448 64.2898 349.171 64.9128 349.309L174.227 370.909C174.989 371.117 175.473 371.809 175.335 372.57Z" fill="#6737C3"/>
<path d="M176.512 397.632C176.374 398.255 175.82 398.74 175.127 398.74C175.058 398.74 174.92 398.74 174.85 398.74L83.1205 379.632C82.6359 378.732 82.1513 377.763 81.6667 376.863C81.5974 376.724 81.5282 376.586 81.459 376.447L173.604 395.624L175.404 395.97C176.235 396.109 176.72 396.87 176.512 397.632Z" fill="#6737C3"/>
<path d="M135.39 324.109C135.39 324.871 134.836 325.494 134.075 325.563L41.8601 328.471C40.9601 327.571 40.0601 326.671 39.1602 325.771L70.8676 324.732L72.3214 324.663L75.7829 324.525L98.8366 323.763L124.452 322.932L134.005 322.656C134.075 322.656 134.144 322.656 134.213 322.656C134.836 322.863 135.321 323.417 135.39 324.109Z" fill="#6737C3"/>
<path d="M417.129 152.887C418.073 148.907 415.612 144.914 411.631 143.97C407.65 143.026 403.658 145.487 402.714 149.468C401.769 153.449 404.231 157.441 408.212 158.385C412.192 159.33 416.185 156.868 417.129 152.887Z" fill="#216EF4"/>
<path d="M409.889 167.026C401.166 167.026 394.035 159.895 394.035 151.172C394.035 142.449 401.166 135.319 409.889 135.319C418.612 135.319 425.743 142.449 425.743 151.172C425.743 159.895 418.681 167.026 409.889 167.026ZM409.889 136.011C401.512 136.011 394.727 142.796 394.727 151.172C394.727 159.549 401.512 166.334 409.889 166.334C418.266 166.334 425.05 159.549 425.05 151.172C425.05 142.796 418.266 136.011 409.889 136.011Z" fill="#216EF4"/>
<path d="M310.75 70.3809C312.279 70.3809 313.519 69.1411 313.519 67.6117C313.519 66.0823 312.279 64.8425 310.75 64.8425C309.22 64.8425 307.98 66.0823 307.98 67.6117C307.98 69.1411 309.22 70.3809 310.75 70.3809Z" fill="#216EF4"/>
<path d="M46.4297 184.611C40.7528 184.611 36.1836 180.041 36.1836 174.365C36.1836 168.688 40.7528 164.118 46.4297 164.118C52.1065 164.118 56.6757 168.688 56.6757 174.365C56.6757 179.972 52.0373 184.611 46.4297 184.611ZM46.4297 165.503C41.5143 165.503 37.5682 169.449 37.5682 174.365C37.5682 179.28 41.5143 183.226 46.4297 183.226C51.345 183.226 55.2911 179.28 55.2911 174.365C55.2911 169.449 51.2758 165.503 46.4297 165.503Z" fill="#216EF4"/>
<path d="M132.827 64.8424C132.827 67.127 130.958 68.9962 128.673 68.9962C126.389 68.9962 124.52 67.127 124.52 64.8424C124.52 62.5578 126.389 60.6886 128.673 60.6886C130.958 60.6886 132.827 62.5578 132.827 64.8424Z" fill="#216EF4"/>
<path d="M523.911 233.418L510.342 263.879L495.942 296.21L492.065 304.933L481.127 329.509L317.328 333.871L326.051 313.24L364.059 223.656C366.135 218.81 370.774 215.487 376.035 215.141C394.935 213.826 441.458 210.987 479.327 211.68C491.857 211.887 503.419 212.58 512.765 213.757C516.088 214.172 518.857 215.695 521.003 217.841C524.949 221.856 526.334 227.88 523.911 233.418Z" fill="#54238E"/>
<path d="M312.272 334.148L310.957 333.663L319.68 311.44L357.687 220.956C359.903 215.764 364.68 212.303 370.218 211.887C388.633 210.572 435.641 207.664 473.579 208.426C487.079 208.703 498.363 209.395 507.086 210.503C510.409 210.918 513.386 212.441 515.671 214.864C519.894 219.226 521.071 225.733 518.578 231.341L486.802 303.548L485.556 302.994L517.332 230.787C519.548 225.733 518.509 219.849 514.701 215.833C512.625 213.618 509.925 212.303 506.878 211.887C498.225 210.78 487.009 210.018 473.509 209.81C435.641 209.049 388.703 212.026 370.287 213.272C365.233 213.618 360.872 216.803 358.934 221.441L320.926 311.925L312.272 334.148Z" fill="#54238E"/>
<path d="M437.819 278.378C444.626 272.111 446.744 263.337 442.548 258.78C438.353 254.223 429.434 255.609 422.626 261.876C415.819 268.143 413.702 276.918 417.897 281.475C422.092 286.032 431.011 284.645 437.819 278.378Z" fill="#B29EEF"/>
<path d="M315.113 238.61C311.859 232.172 307.567 226.287 304.936 219.503C304.451 218.256 302.444 218.81 302.928 220.056C305.559 226.979 309.921 233.072 313.313 239.649C313.936 240.895 315.736 239.787 315.113 238.61Z" fill="white"/>
<path d="M286.657 302.302C291.019 311.994 305.696 313.586 314.765 312.548C316.08 312.41 316.08 310.333 314.765 310.471C306.457 311.44 292.542 310.263 288.457 301.263C287.903 300.017 286.103 301.056 286.657 302.302Z" fill="white"/>
<path d="M252.734 294.064C251.626 275.164 249.826 256.333 247.403 237.572C245.465 222.341 243.596 207.11 239.857 192.226C237.988 184.818 235.703 177.48 232.727 170.418C229.957 163.703 225.388 156.365 228.227 148.888C220.819 154.219 215.904 156.434 207.388 159.757C200.534 162.457 193.404 164.395 186.619 167.234C182.673 168.895 178.796 170.834 175.612 173.672C171.942 176.857 169.312 180.941 166.819 185.095C163.981 189.803 161.281 194.511 158.996 199.495C155.327 207.457 152.627 215.833 149.581 224.003C144.112 238.679 137.397 252.872 130.058 266.648C125.42 275.371 120.435 284.233 119.12 293.994C117.804 303.756 121.127 314.971 129.712 319.817C133.658 322.033 138.227 322.794 142.727 323.071C175.612 325.494 206.765 320.994 243.873 316.217C242.903 316.633 244.911 316.079 243.873 316.217C244.98 315.802 245.603 314.625 246.088 313.586C249.065 307.494 252.249 300.917 252.734 294.064Z" fill="#FDCB22"/>
<path d="M199.079 238.402C194.025 251.141 189.802 264.156 186.548 277.448C186.41 278.002 186.756 278.556 187.241 278.694C204.756 284.164 223.102 284.925 240.963 288.594C243.386 289.079 250.932 289.771 251.486 292.471C251.902 294.34 251.071 296.971 250.655 298.84C249.271 305.348 246.986 312.063 242.417 316.979C241.517 317.948 242.971 319.402 243.871 318.433C248.579 313.31 251.071 306.456 252.525 299.74C253.286 296.14 255.155 290.879 250.932 289.01C246.432 287.002 240.686 286.448 235.84 285.617C230.579 284.717 225.317 284.025 220.056 283.264C209.117 281.741 198.248 280.079 187.656 276.825C187.864 277.241 188.141 277.656 188.348 278.071C191.671 264.779 195.825 251.764 200.879 239.026C201.571 237.71 199.564 237.156 199.079 238.402Z" fill="white"/>
<path d="M187.382 276.687C181.635 277.587 176.166 279.179 170.835 281.533C169.589 282.087 170.697 283.887 171.874 283.333C176.997 281.048 182.328 279.525 187.935 278.694C189.251 278.487 188.697 276.479 187.382 276.687Z" fill="white"/>
<path d="M259.105 169.934C254.259 171.734 248.859 171.18 243.736 170.141C238.682 169.103 233.213 167.303 230.651 162.872C227.398 157.265 230.028 150.272 231.551 143.972C233.559 135.942 233.628 127.426 231.759 119.327L250.867 122.996L257.374 124.242C257.236 132.619 259.313 140.996 263.466 148.196C263.882 148.888 264.297 149.58 264.643 150.272C266.166 152.834 267.62 155.395 267.759 158.303C268.174 163.565 264.02 168.203 259.105 169.934Z" fill="#FFB9A3"/>
<path d="M264.779 150.342C246.848 149.026 240.064 136.565 237.779 130.611C239.233 131.788 240.895 132.757 242.695 133.519C247.61 135.526 253.356 135.319 258.133 133.173C259.033 138.503 260.902 143.696 263.602 148.334C263.948 148.957 264.364 149.649 264.779 150.342Z" fill="#FF9B8D"/>
<path d="M409.887 100.842C387.941 100.842 370.148 82.9807 370.148 61.104C370.148 39.2272 388.01 21.3658 409.887 21.3658C431.832 21.3658 449.625 39.2272 449.625 61.104C449.625 82.9807 431.832 100.842 409.887 100.842ZM409.887 22.0581C388.356 22.0581 370.841 39.5734 370.841 61.104C370.841 82.6345 388.356 100.15 409.887 100.15C431.417 100.15 448.932 82.6345 448.932 61.104C448.932 39.5734 431.417 22.0581 409.887 22.0581Z" fill="#54238E"/>
<path d="M409.471 61.5194L414.663 30.8505L415.355 30.9889L410.301 60.7579C416.948 59.9271 426.64 58.6118 427.263 58.2656L427.401 58.5425H427.471L427.747 58.2656L427.817 58.6118C427.747 58.8887 427.609 59.2348 409.955 61.4502L409.471 61.5194Z" fill="#54238E"/>
<path d="M544.401 115.865C542.808 111.088 540.801 106.311 537.132 102.919C530.139 96.4806 518.509 97.1729 510.686 102.642C502.932 108.111 498.432 117.25 496.147 126.526C494.001 141.203 494.555 151.657 498.986 167.095C501.132 174.641 504.455 182.118 510.27 187.38C516.086 192.641 524.739 195.272 532.009 192.295C538.932 189.457 543.085 182.326 545.578 175.265C552.362 156.295 550.839 135.042 544.401 115.865Z" fill="#F7F9FB"/>
<path d="M192.575 233.695C193.752 234.664 194.652 235.91 195.76 236.949C196.867 237.918 198.113 238.61 199.36 239.372C200.537 239.995 201.575 238.264 200.398 237.572C199.152 236.879 197.906 236.187 196.867 235.218C195.898 234.249 195.067 233.141 193.96 232.31C192.99 231.41 191.537 232.864 192.575 233.695Z" fill="white"/>
<path d="M304.865 220.472C306.319 218.464 307.703 216.387 309.019 214.241C309.711 213.134 307.911 212.095 307.219 213.203C305.903 215.28 304.519 217.357 303.065 219.433C302.303 220.541 304.103 221.58 304.865 220.472Z" fill="white"/>
<path d="M225.873 102.434C226.704 112.611 229.127 126.873 238.75 132.619C243.112 135.18 248.927 137.05 254.05 136.219C259.242 135.388 262.981 131.511 266.165 127.634C266.788 126.873 265.681 125.765 265.058 126.527C262.081 130.196 258.619 133.865 253.773 134.626C248.788 135.457 242.765 133.45 238.612 130.611C230.442 125.073 228.227 111.504 227.466 102.434C227.396 101.465 225.804 101.465 225.873 102.434Z" fill="white"/>
<path d="M190.082 347.094H159.621L153.252 305.763H197.075L190.082 347.094Z" fill="white"/>
<path d="M174.782 352.217C183.232 352.217 190.082 349.923 190.082 347.094C190.082 344.264 183.232 341.971 174.782 341.971C166.332 341.971 159.482 344.264 159.482 347.094C159.482 349.923 166.332 352.217 174.782 352.217Z" fill="white"/>
<path d="M175.13 310.886C187.25 310.886 197.076 308.593 197.076 305.763C197.076 302.934 187.25 300.64 175.13 300.64C163.009 300.64 153.184 302.934 153.184 305.763C153.184 308.593 163.009 310.886 175.13 310.886Z" fill="white"/>
<path d="M175.127 309.986C185.183 309.986 193.335 308.096 193.335 305.763C193.335 303.431 185.183 301.54 175.127 301.54C165.072 301.54 156.92 303.431 156.92 305.763C156.92 308.096 165.072 309.986 175.127 309.986Z" fill="#400F58"/>
<path d="M156.09 310.194C148.89 311.233 141.69 312.202 134.49 313.24C132.829 313.448 132.621 315.733 133.59 316.702C138.506 321.894 143.49 327.086 148.406 332.279C152.698 336.709 157.059 341.002 162.459 344.117C164.744 345.432 166.89 341.902 164.536 340.517C159.136 337.402 154.775 332.971 150.483 328.471C145.775 323.556 141.136 318.709 136.498 313.794C136.221 314.971 135.875 316.079 135.598 317.256C142.798 316.217 149.998 315.248 157.198 314.209C159.829 313.794 158.721 309.779 156.09 310.194Z" fill="white"/>
<path d="M169.519 305.694C168.896 304.863 168.273 304.033 167.719 303.133C166.958 301.817 166.75 301.61 167.304 300.086C167.858 298.563 169.035 298.079 169.935 296.833C170.904 295.448 171.25 293.856 170.212 292.471C169.035 290.879 166.542 290.463 164.742 290.671C164.327 290.74 163.912 290.879 163.427 290.948C162.042 291.294 159.619 291.017 158.719 289.702C157.335 287.694 160.866 284.787 162.181 283.61C162.942 282.917 161.835 281.81 161.073 282.502C158.996 284.371 156.642 286.24 157.058 289.356C157.404 291.848 158.996 293.44 161.489 293.094C163.358 292.887 171.319 290.463 168.758 295.656C167.927 297.248 165.989 297.802 165.365 299.533C164.465 302.094 167.027 305.002 168.481 306.802C169.035 307.563 170.142 306.456 169.519 305.694Z" fill="white"/>
<path d="M176.443 302.994C175.612 302.025 174.297 300.71 174.089 299.394C173.743 296.625 175.682 296.556 176.928 295.379C177.551 294.756 178.035 294.202 178.105 293.302C178.382 290.325 174.989 290.048 173.12 288.94C167.512 285.756 170.282 279.802 172.912 275.787C174.712 273.018 176.305 270.387 176.097 266.925C176.028 265.956 174.505 265.956 174.574 266.925C175.058 274.471 164.051 280.356 169.866 288.11C170.835 289.425 172.012 290.117 173.466 290.74C175.405 291.571 176.512 292.887 174.782 294.894C174.366 295.31 173.743 295.517 173.328 296.002C171.043 298.702 173.397 301.887 175.266 304.033C175.958 304.863 177.066 303.756 176.443 302.994Z" fill="white"/>
<path d="M182.812 304.171C182.259 302.925 181.428 301.54 182.743 300.363C183.089 300.017 183.643 299.948 184.058 299.74C184.889 299.325 185.512 298.84 185.789 297.94C186.412 296.071 185.166 294.41 183.435 293.925C182.466 293.648 182.051 295.171 183.02 295.448C184.266 295.794 184.889 297.317 183.712 298.287C183.435 298.494 182.743 298.702 182.397 298.91C181.843 299.256 181.289 299.602 180.943 300.156C179.974 301.748 180.805 303.548 181.497 305.071C181.912 305.902 183.228 305.071 182.812 304.171Z" fill="white"/>
</svg>
